<?xml version="1.0" encoding="utf-8"?>
<!-- Generator: Adobe Illustrator 16.0.0, SVG Export Plug-In . SVG Version: 6.00 Build 0)  -->
<!DOCTYPE svg PUBLIC "-//W3C//DTD SVG 1.1//EN" "http://www.w3.org/Graphics/SVG/1.1/DTD/svg11.dtd">
<svg version="1.1" id="team_logos" xmlns="http://www.w3.org/2000/svg" xmlns:xlink="http://www.w3.org/1999/xlink" x="0px" y="0px"
	 width="200px" height="200px" viewBox="0 0 200 200" enable-background="new 0 0 200 200" xml:space="preserve">
<g id="bengals">
	<g>
		<path fill="#FFFFFF" d="M18.005,121.364l21.15,36.334l97.684-0.011c31.525,0,45.156-16.449,45.156-34.101
			c0-11.691-8.301-21.166-16.738-25.465c-0.866-0.439-0.761-1.228-0.133-1.693c7.377-5.469,12.355-12.479,12.355-23.311
			c0-12.822-9.169-30.815-45.019-30.815H40.049L19.113,78.766h15.375c1.713,0,3.101,1.386,3.101,3.099v36.401
			c0,1.713-1.388,3.099-3.101,3.099H18.005z"/>
		<path fill="#F04E23" d="M153.851,98.946c-1.114-0.267-0.934-1.627-0.12-1.936c10.023-3.792,15.873-10.545,15.873-22.444
			c0.142-15.957-13.961-26.923-36.896-26.923H45.801L30.554,74.583h10.495c2.073,0,3.75,1.677,3.75,3.749v43.471
			c0,2.073-1.677,3.75-3.75,3.75H30.671l15.361,26.806l90.806-0.01c25.929,0,36.611-17.235,36.611-29.912
			C173.45,111.288,165.237,101.668,153.851,98.946z M110.521,125.566H98.127c-1.541,0-2.788-1.249-2.788-2.79v-14.592h15.183
			c7.27,0,9.972,3.564,9.972,8.553C120.493,121.861,117.791,125.566,110.521,125.566z M110.521,91.946H95.339V77.331
			c0.013-1.531,1.255-2.765,2.788-2.765h12.395c7.27,0,9.972,3.708,9.972,8.547C120.493,88.244,117.791,91.946,110.521,91.946z"/>
		<path d="M120.443,47.643c-2.892,7.576-5.925,16.715-8.483,26.976c-0.457-0.033-0.937-0.054-1.438-0.054H98.127
			c-1.533,0-2.775,1.234-2.788,2.765v14.615h13.031c-0.86,5.239-1.558,10.665-2.016,16.239H95.339v14.591
			c0,1.541,1.247,2.79,2.788,2.79h7.61c0.113,8.744,0.892,17.721,2.533,26.78H96.938c-8.937-21.586-21.235-58.098-9.002-104.703
			H120.443z M151.363,50.642c-18.444,27.351-28.438,62.215-23.951,93.966c5.496-26.709,19.835-51.381,42.164-69.249
			c0.004-0.267,0.027-0.52,0.027-0.792C169.699,63.566,163.027,54.94,151.363,50.642z M75.369,144.748
			c-16.115-30.291-20.35-65.117-14.348-97.105h-15.22L30.554,74.583h10.495c2.073,0,3.75,1.677,3.75,3.749v33.354
			C52.618,124.378,63.947,136.535,75.369,144.748z"/>
	</g>
</g>
</svg>
