<?xml version="1.0" encoding="utf-8"?>
<!-- Generator: Adobe Illustrator 16.0.0, SVG Export Plug-In . SVG Version: 6.00 Build 0)  -->
<!DOCTYPE svg PUBLIC "-//W3C//DTD SVG 1.1//EN" "http://www.w3.org/Graphics/SVG/1.1/DTD/svg11.dtd">
<svg version="1.1" id="team_logos" xmlns="http://www.w3.org/2000/svg" xmlns:xlink="http://www.w3.org/1999/xlink" x="0px" y="0px"
	 width="200px" height="200px" viewBox="0 0 200 200" enable-background="new 0 0 200 200" xml:space="preserve">
<g id="saints">
	<g>
		<g>
			<path d="M152.185,83.266c-11.845-6.884-23.503-5.292-32.346-1.351c-0.391-2.909-1.148-6.099-2.415-9.832
				c-1.874-5.555-3.932-10.861-5.742-15.547c-2.382-6.152-4.192-11.424-5.188-14.95L100.049,19.5l-6.691,22.101
				c-1.022,3.512-2.787,8.812-5.154,14.97c-1.801,4.686-3.842,10-5.705,15.553c-1.252,3.742-2.009,6.935-2.392,9.847
				c-8.852-3.921-20.517-5.49-32.347,1.418c-9.67,5.655-14.849,15.482-13.517,25.649c1.216,9.25,7.54,16.517,16.502,18.979
				l6.674,1.835l1.633-6.727c0.235-0.912,2.643-9.331,10.224-9.178c5.259,0.109,9.625,4.758,11.809,7.763
				c-0.705,2.126-1.081,4.674-0.722,7.419l-2.968-3.961l-5.371,4.002c-4.837,3.603-11.858,12.505-7.52,23.01
				c1.893,4.58,5.961,7.704,11.456,8.796c3.359,0.668,7.177,0.513,10.713-0.264c1.392,4.467,3.93,9.872,8.544,14.699l4.87,5.087
				l4.854-5.099c4.604-4.84,7.125-10.252,8.513-14.722c3.539,0.765,7.354,0.912,10.713,0.235c5.491-1.103,9.55-4.237,11.435-8.822
				c4.315-10.517-2.732-19.402-7.573-22.993l-5.378-3.987l-2.961,3.965c0.355-2.743-0.03-5.289-0.739-7.418
				c2.177-3.009,6.531-7.669,11.791-7.788c7.583-0.171,10.006,8.242,10.257,9.204l1.646,6.723c-0.009-0.053,6.659-1.901,6.659-1.901
				c8.962-2.479,15.266-9.766,16.456-19.021C167.071,98.71,161.869,88.895,152.185,83.266z"/>
			<g>
				<path fill="#FFFFFF" d="M97.827,42.547c-0.816,3.844-2.922,9.32-5.36,15.661c-1.785,4.646-3.809,9.909-5.639,15.368
					c-1.755,5.242-2.472,9.152-2.472,12.797c0,1.166,0.134,2.306,0.271,3.452c-6.751-4.635-20.052-10.972-34.558-2.494
					c-8.058,4.711-12.385,12.798-11.296,21.108c0.97,7.391,6.021,13.21,13.185,15.178l2.125,0.582l0.529-2.147
					c0.133-0.525,3.324-12.9,14.759-12.667c9.204,0.184,15.218,9.132,16.843,11.882c-0.773,1.43-1.415,3.399-1.415,5.663
					c0,2.426,0.824,5.184,2.932,7.949c-0.84,1.137-2.216,2.533-3.821,2.667c-2.29,0.188-4.608-2.223-6.147-4.281l-1.286-1.715
					l-1.719,1.282c-3.517,2.621-9.308,9.673-6.03,17.606c1.311,3.169,4.121,5.266,8.126,6.062c4.14,0.82,9.366,0.073,13.078-1.618
					c0.719,4.188,2.756,11.275,8.593,17.375l1.556,1.63l1.554-1.633c5.822-6.116,7.842-13.209,8.551-17.4
					c3.718,1.683,8.952,2.419,13.091,1.584c3.999-0.804,6.801-2.908,8.102-6.079c3.253-7.938-2.544-14.978-6.066-17.592
					l-1.723-1.275l-1.281,1.72c-1.536,2.059-3.851,4.479-6.142,4.294c-1.604-0.13-2.983-1.521-3.825-2.656
					c2.091-2.762,2.911-5.509,2.911-7.931c0-2.274-0.646-4.251-1.428-5.685c1.62-2.752,7.617-11.722,16.815-11.926
					c11.435-0.256,14.656,12.112,14.786,12.639l0.535,2.137l2.127-0.581c7.156-1.984,12.195-7.81,13.148-15.207
					c1.067-8.313-3.275-16.39-11.342-21.083c-14.538-8.453-27.831-2.069-34.566,2.582c0.126-1.114,0.256-2.22,0.256-3.357
					c0-3.686-0.713-7.657-2.482-12.896c-1.841-5.448-3.875-10.703-5.671-15.34c-2.455-6.337-4.57-11.811-5.396-15.658l-2.115-9.86
					L97.827,42.547z"/>
			</g>
			<g>
				<path d="M100.089,170.77c8.23-8.647,8.331-19.553,8.331-19.553c3.642,3.631,17.797,6.06,20.971-1.674
					c3.48-8.49-5.36-15.05-5.36-15.05c-8.568,11.486-14.317,0.244-14.317,0.244c6.525-7.051,1.629-13.409,1.629-13.409
					c0.426-1.274,7.663-13.909,19.248-14.167c13.355-0.301,16.921,14.271,16.921,14.271c14.002-3.88,16.71-23.402,1.3-32.359
					c-19.554-11.371-36.589,5.951-36.589,5.951c1.585-6.483,2.036-11.328-1.16-20.796c-4.335-12.834-9.648-24.301-11.132-31.233
					c-1.471,6.932-6.76,18.418-11.061,31.264c-3.173,9.474-2.707,14.319-1.113,20.796c0,0-17.075-17.278-36.602-5.866
					c-15.39,8.997-12.637,28.507,1.374,32.357c0,0,3.533-14.582,16.888-14.308c11.589,0.23,18.852,12.846,19.282,14.12
					c0,0-4.882,6.371,1.66,13.405c0,0-5.725,11.259-14.315-0.208c0,0-8.832,6.581-5.328,15.062
					c3.194,7.725,17.339,5.263,20.974,1.623c0,0,0.125,10.909,8.373,19.533"/>
			</g>
			<path fill="#9F8958" d="M135.114,88.461c-15.911,0.017-28.959,18.088-28.959,18.088c0.565-2.956,7.368-16.261,1.213-32.162
				c-6.158-15.899-7.415-22.305-7.415-22.305l-0.028,0.182v-0.176c0,0-1.246,6.406-7.363,22.322
				c-6.119,15.917,0.715,29.207,1.287,32.158c0,0-13.09-18.038-29.002-18.018c-15.912,0.018-29.158,18.126-14.455,28.819
				c0,0,4.304-13.36,19.133-13.389c10.907-0.022,21.833,11.678,22.296,17.476c0,0-4.993,7.051,1.949,12.949
				c0,0-7.499,15.777-17.898,4.414c0,0-7.996,10.004,2.461,12.424c8.297,1.92,16.468-6.497,16.468-6.497s-0.891,13.295,5.253,20.561
				v-0.065l0.032,0.063c6.129-7.279,5.206-20.574,5.206-20.574s8.192,8.399,16.489,6.456c10.447-2.444,2.429-12.431,2.429-12.431
				c-10.37,11.388-17.904-4.369-17.904-4.369c6.923-5.917,1.913-12.954,1.913-12.954c0.448-5.794,11.345-17.521,22.256-17.524
				c14.831,0,19.165,13.347,19.165,13.347C164.317,106.523,151.024,88.44,135.114,88.461z"/>
		</g>
	</g>
</g>
</svg>
