<?xml version="1.0" encoding="utf-8"?>
<!-- Generator: Adobe Illustrator 16.0.3, SVG Export Plug-In . SVG Version: 6.00 Build 0)  -->
<!DOCTYPE svg PUBLIC "-//W3C//DTD SVG 1.1//EN" "http://www.w3.org/Graphics/SVG/1.1/DTD/svg11.dtd">
<svg version="1.1" id="team_logos" xmlns="http://www.w3.org/2000/svg" xmlns:xlink="http://www.w3.org/1999/xlink" x="0px" y="0px"
	 width="200px" height="200px" viewBox="0 0 200 200" enable-background="new 0 0 200 200" xml:space="preserve">
<g id="seahawks">
	<g>
		<g>
			<g>
				<path fill="#FFFFFF" d="M164.91,127.186c-8.75-1.75-20.238-2.215-25.09-2.215l-115.461,0.025c-7.182,0-14.611,0-18.424-5.872
					c-3.866-5.958-1.765-11.819,4.756-23.549c0.486-0.871,20.262-38.051,20.262-38.051s2.021,2.509,4.056,4.108
					c2.011,1.575,4.078,2.416,9.588,2.416c9.786,0,72.915-0.139,73.559-0.14c12.814,0,25.76,1.325,34.146,10.523
					c4.354,0.464,18.409,2.322,29.991,7.861c6.779,3.239,11.251,8.077,12.941,13.985c0.511,1.788,0.765,3.665,0.765,5.614
					c0,5.607-2.101,11.818-6.218,18.275c-8.698,13.643-16.721,18.411-17.081,18.669c-4.943,3.478-9.729,3.64-9.729,3.64
					s4.312-4.902,5.766-9.808C170.193,127.766,164.91,127.186,164.91,127.186z"/>
			</g>
			<g>
				<g>
					<g>
						<g>
							<path fill="#002A5C" d="M180.866,85.282c-13.204-6.313-30.164-7.678-30.164-7.678c-7.4-9.043-19.906-10.385-32.546-10.385
								c0,0-63.656,0.141-73.559,0.141c-11.526,0-12.684-4.572-12.684-4.572l-15.45,28.933c0,0,27.5,0,40.125,0
								c12.627,0,13.261-1.265,21.637-7.425c8.896-6.545,15.998-8.911,24.404-8.911c8.4,0,13.964,1.892,23.316,6.038
								c9.354,4.14,14.326,6.154,19.894,3.787c0,0-4.381,5.919-17.641,0.353c-13.259-5.562-16.81-6.747-24.861-6.747
								c-7.943,0-17.042,3.812-28.433,15.18l13.576,10.923c0,0-3.141,4.853-5.208,7.949c-2.062,3.098-1.87,5.166-0.77,6.679
								c1.103,1.516,2.49,2.201,7.516,2.201c5.024,0,45.296-0.092,49.802-0.092c3.916,0,16.17,0.365,25.736,2.275
								c12.702,2.541,4.508,13.254,4.508,13.254s8.504-5.601,16.926-18.801C196.382,103.66,194.066,91.595,180.866,85.282z"/>
						</g>
					</g>
				</g>
				<path fill="#FFFFFF" d="M157.539,87.655c-6.006-1.438-0.871-4.915-0.871-4.915c-8.643,1.747-11.857,8.796-12.6,10.767
					c-0.139,0.269-0.28,0.542-0.428,0.832c-4.779,9.62-9.086,9.104-17.252,9.104c-3.322,0-8.312,0-13.979,0
					c-11.326,0-16.601,5.613-22.029,15.172h6.397c5.845-8.704,10.259-11.051,21.82-11.703c26.42,0.015,47.48,7.595,58.611,13.388
					C193.039,93.718,169.546,89.318,157.539,87.655z"/>
				<path fill="#FFFFFF" d="M108.365,118.514c2.953-4.468,8.963-5.983,18.648-5.427c23.903,1.384,37.647,6.039,48.325,10.019
					c-13.168-7.709-36.632-13.264-52.94-13.211c-7.972,0.022-14.933,1.416-19.021,8.619H108.365z"/>
				<g>
					<g>
						<path fill="#FFFFFF" d="M134.021,92.143c-3.117,4.345-7.22,5.831-18.856,5.035c-13.539-0.919-10.045-6.625-8.47-9.432
							c0,0-0.034,0-0.045-0.006c0.431-0.794,1.168-2.144,1.914-3.501c-10.374-0.641-17.949,7.344-17.949,7.344
							c7.733,7.651,12.893,8.45,19.89,8.45c2.433,0,5.888,0,13.079,0c12.162,0,15.102-5.472,16.216-7.906
							C137.699,92.389,135.811,92.368,134.021,92.143z"/>
						<path fill="#77C25F" d="M128.116,90.848c-0.247-0.101-0.505-0.205-0.759-0.31c-1.193,1.256-3.25,1.986-5.244,1.728
							c-2.622-0.335-4.135-2.241-3.389-4.252c0.107-0.295,0.262-0.572,0.449-0.837c-1.345-0.527-2.695-1.033-4.013-1.492
							c-2.694,4.358-4.272,7.247,5.077,8.036c5.824,0.497,7.404-0.5,8.627-2.592C128.618,91.034,128.373,90.951,128.116,90.848z"/>
					</g>
				</g>
				<path fill="#B2B5B8" d="M81.153,107.409c-4.825,8.372-6.739,10.297-3.35,14.271c0,0-43.694,0-53.444,0
					c-7.882,0-13.006-0.298-15.643-4.361c-2.563-3.946-2.036-7.711,4.873-20.133c0,0,37.619,0,45.439,0
					c7.823,0,9.835,0.446,14.08,3.741C77.354,104.223,81.153,107.409,81.153,107.409z"/>
			</g>
		</g>
	</g>
</g>
</svg>
