<?xml version="1.0" encoding="utf-8"?>
<!-- Generator: Adobe Illustrator 16.0.4, SVG Export Plug-In . SVG Version: 6.00 Build 0)  -->
<!DOCTYPE svg PUBLIC "-//W3C//DTD SVG 1.1//EN" "http://www.w3.org/Graphics/SVG/1.1/DTD/svg11.dtd">
<svg version="1.1" id="Layer_2" xmlns="http://www.w3.org/2000/svg" xmlns:xlink="http://www.w3.org/1999/xlink" x="0px" y="0px"
	 width="200px" height="200px" viewBox="0 0 200 200" enable-background="new 0 0 200 200" xml:space="preserve">
<g>
	<path fill="#FFFFFF" d="M118.94,156.292c-0.421,1.055-0.825,2.867-0.659,4.189c0.037,0.286,0.094,0.548,0.16,0.803v0.005
		c-0.995,4.57-2.922,4.646-3.431,4.578c-0.083-0.011-0.128-0.026-0.128-0.026c1.901-1.685,1.84-4.737,3.78-8.979
		c0.09-0.193,0.188-0.393,0.284-0.592C118.947,156.276,118.944,156.285,118.94,156.292z"/>
	<path fill="#B1BABF" d="M179.146,23.514c0,0,0.401,7.333-0.984,14.048c-1.339,6.487-2.075,8.959-2.075,8.959
		c-2.833,1.66-7.418,3.704-14.121,4.819c-12.51,2.086-23.863-1.274-36.257-6.14c-12.396-4.866-28.983-10.106-44.373-8.339
		c-14.921,1.714-25.598,7.758-31.274,11.7c-5.676,3.938-6.721,4.979-11.586,6.37c0,0,3.824,1.505,5.793,1.505
		c0,0-0.928,3.827-0.581,5.098c0,0,8.108-3.707,9.036-1.969c0.928,1.739-2.896,2.9-5.56,3.59c-2.663,0.698-9.617,0.578-9.617,0.578
		s3.261,2.525,4.412,4.277c0,0-6.147,2.677-12.984,1.749c0,0-0.227,2.532,5.393,6.678c-1.196,0.429-2.712,1.123-3.65,2.125
		c0,0,5.889-1.214,9.589,2.908c0.974,1.222,1.292,2.316,1.182,3.697c-0.201,2.503-1.161,3.459-3.519,5.018
		c-1.35,0.548-2.784,1.235-4.167,2.082c-6.513,4.001-11.275,10.092-14.618,17.049c-1.448,3.014-2.606,6.515-3.424,9.69
		c-0.817,3.195-1.118,6.031-1.31,7.803c-0.191,1.767-0.454,7.337-0.454,7.337s2.921-4.094,4.292-6.056
		c1.363-1.954,10.003-12.819,22.588-15.967c4.026-1.021,8.035-1.45,11.867-1.45c9.209-0.008,17.436,2.491,22.304,4.875
		c7.068,3.421,18.679,11.494,33.901,14.019c3.584,0.592,7.447,0.886,11.453,0.886c3.841,0,7.817-0.279,11.792-0.822
		c-2.245,3.351-4.399,6.481-6.445,9.38c-2.075-1.975-4.891-2.181-4.891-2.181c-3.413-0.322-5.123,1.758-5.123,1.758
		c-0.69,0.746-1.208,1.716-1.41,2.86c-0.24,1.059,0.046,2.291,0.245,2.917c0.651,2.069,2.418,3.011,3.105,3.311
		c-4.99,6.646-6.438,14.301-6.438,14.303l-2.276,2.008l0.82,3.328c-1.266,4.084,0.723,7.146,3.306,8.415
		c2.62,1.288,5.066,0.54,5.066,0.54c1.54-0.432,2.936-1.402,3.885-2.825c0.146-0.216,0.272-0.436,0.386-0.654
		c0.531-0.286,0.987-0.609,1.377-0.957c0.72,0.082,2.561,0.14,2.561,0.14c3.774-0.033,7.464-1.104,10.279-3.492
		c2.217-1.984,4.656-5.364,4.742-9.985c0-0.867,0.159-4.366-2.73-7.416c18.232-26.771,30.07-44.004,37.627-61.538
		C196.299,43.061,179.22,23.681,179.146,23.514z"/>
	<path d="M119.036,159.568c-0.003,0.003-0.003,0.006-0.003,0.011c0.003-0.008,0.008-0.017,0.011-0.022
		c0-0.007,0.004-0.011,0.004-0.015C119.044,159.55,119.041,159.561,119.036,159.568z M180.622,31.517
		c-0.202,9.695-2.857,16.448-2.857,16.448c-3.796,2.273-8.976,4.699-14.895,5.577c-12.36,1.827-18.433-0.021-29.882-3.683
		c-11.441-3.661-28.611-11.561-46.235-11.444c-17.627,0.113-30.208,7.765-41.479,16.469c0.174-0.052,2.939-0.917,3.938-1.246
		c0,0-2.63,3.088-3.431,4.805c0,0,5.244-3.92,12.442-3.502c0,0-2.503,0.627-3.548,2.192c0,0,2.922-0.63,3.442,0.521
		c0.523,1.147-1.25,3.757-4.483,5.216c-3.233,1.462-8.453,2.61-11.791,2.819c0,0,3.342,1.044,5.53,3.13c0,0-2.549,0.365-5.321,1.459
		c-2.309,0.913-6.47,1.461-8.244,1.253c0,0,2.429,2.273,5.321,4.069c8.471,5.254,4.894,13.045,2.167,15.598
		c-1.795,0.51-20.509,5.602-24.798,35.814c0,0,9.483-13.229,23.842-16.884c14.362-3.655,28.285,0,35.594,3.564
		c7.309,3.57,18.622,11.4,33.328,13.839c8.087,1.343,17.825,1.099,27.251-0.705c-0.151,0.235-7.344,10.933-10.435,15.244
		c0,0-2.295-2.881-5.401-3.168c0,0-1.303-0.264-2.357,0.287v0.003c-0.932,0.428-1.728,1.347-1.986,2.617
		c-0.262,1.288,0.205,2.287,0.814,2.995c0.581,0.677,1.31,1.021,1.901,1.18c0.528,0.126,1.262,0.45,1.398,1.146
		c-1.416,2.183-3.356,5.334-4.755,8.379c-1.099,2.397-1.622,4.455-2.062,5.839c-0.414,1.42-0.782,1.978-0.903,2.048l-1.49,1.312
		c0,0,0.57,2.306,0.733,2.691c-0.362,0.688-0.542,1.445-0.545,2.193v0.042c0,1.565,0.771,3.102,2.174,4.025
		c1.094,0.755,2.676,0.801,2.676,0.801c1.562,0,3.096-0.771,4.02-2.16c0.224-0.337,0.394-0.689,0.517-1.044
		c1.123-0.457,1.813-1.095,2.172-1.619c0.832,0.191,3.254,0.266,3.353,0.266c3.387-0.023,6.593-0.994,8.941-2.995
		c1.887-1.689,3.948-4.579,4.016-8.45c0-0.689,0.208-4.329-3.286-7.22c3.021-4.365,6.731-9.808,10.634-15.711
		c7.255-10.995,13.19-20.548,17.704-28.526c4.724-8.109,19.504-30.385,19.474-60.888C183.806,37.226,180.622,31.517,180.622,31.517z
		 M140.651,125.938c1.629-0.396,3.239-0.829,4.821-1.324c0.048-0.015,0.094-0.028,0.14-0.046
		c-1.618,2.454-14.359,20.683-15.237,21.866c-0.071-0.057-2.259-1.93-2.337-1.997C131.284,139.926,140.466,126.217,140.651,125.938z
		 M121.051,152.358c0.702-1.19,1.438-2.359,2.187-3.521c0.034-0.052,0.07-0.106,0.104-0.158c-0.031,0.243-0.115,1.571,0.33,2.889
		c0.259,0.631,0.668,1.267,1.317,1.862c0.58,0.535,1.065,0.964,1.47,1.299c-1.961,2.537-4.742,7.276-4.742,7.276
		c-1.19,0.072-1.785-0.321-2.457-1.755c-0.096-0.205-0.17-0.433-0.227-0.67v-0.002c-0.354-1.478-0.032-3.38-0.024-3.433
		C119.058,156.047,120.379,153.498,121.051,152.358z M128.444,157.453c0.521,0.259,1.269,0.766,1.619,1.499
		c0.092,0.193,0.135,0.38,0.135,0.59c0.054,0.858-0.949,2.111-1.839,2.44c-0.644,0.265-1.498,0.396-2.322,0.394
		c-0.262,0-0.521-0.011-0.771-0.036c0.233-0.393,0.517-0.871,0.832-1.385C126.805,159.799,127.685,158.449,128.444,157.453z
		 M133.177,164.458c-1.579,1.377-4.264,2.255-7.068,2.201c-2.5-0.049-4.257-0.452-5.847-1.315c-0.007,0.018-0.01,0.03-0.014,0.053
		c-0.125,0.105-0.376,0.683-2.213,0.955c-1.232,0.201-1.948-0.046-2.022-0.07c2.167,2.192,4.128,0.812,4.128,0.812
		c0.092,0.381,0.228,0.654,0.228,0.654s-0.651,0.956-2.635,0.627c-0.24-0.039-0.446-0.106-0.648-0.181
		c0.04,0.021,0.074,0.034,0.113,0.061c0.762,0.498,0.968,1.522,0.468,2.28c-0.507,0.762-1.525,0.966-2.288,0.467
		c-0.758-0.502-0.966-1.526-0.463-2.283c0.41-0.624,1.161-0.868,1.838-0.666c-1.487-0.715-1.87-2.211-1.87-2.211
		c1.902-1.685,1.841-4.737,3.781-8.979c0.089-0.193,0.188-0.393,0.283-0.591c0,0.007-0.003,0.015-0.007,0.021
		c-0.42,1.055-0.825,2.869-0.659,4.189c0.037,0.287,0.094,0.548,0.16,0.803v0.005c0.028,0.117,0.681,2.753,2.46,2.325
		c-0.017,0.039-0.275,0.62-0.278,0.626c0.779,0.487,2.563,1.332,5.602,1.37c4.268,0.059,6.601-2.749,7.241-4.839
		c0.503-1.626-0.275-3.432-1.884-5.015c0.472-0.545,0.758-1.306,0.443-2.354c0.145,0.484-0.766,1.349-1.726,1.264
		c-0.088-0.006-0.172-0.021-0.262-0.046c-1.448-0.403-3.098-2.167-4.496-3.212c-1.392-1.044-1.8-2.661-1.771-3.811
		c0.021-1.146-0.367-2.506-1.462-3.537c-1.094-1.029-2.076-1.129-2.387-1.21c-0.315-0.085-0.403-0.28-0.372-0.489
		c0.064-0.343,0.507-0.28,0.507-0.28c2.656,0.532,4.597,3.163,5.024,3.936c0.396,0.707,4.59,3.982,6.212,5.417
		c0.757,0.553,4.04,3.069,4.627,5.651C136.618,160.166,134.752,163.084,133.177,164.458z M133.785,149.302
		c-0.021-0.018-0.053-0.039-0.071-0.053c-0.436-0.396-0.997-0.874-1.622-1.396c1.018-1.448,12.659-18.76,16.073-24.128
		c1.193-0.421,2.354-0.882,3.502-1.363C149.358,126.013,136.763,144.991,133.785,149.302z M119.048,159.542
		c-0.004,0.008-0.007,0.019-0.012,0.026c-0.003,0.003-0.003,0.006-0.003,0.011c0.003-0.008,0.008-0.017,0.011-0.022
		C119.044,159.55,119.048,159.546,119.048,159.542z"/>
	<path fill="#D50A0A" d="M155.979,56.804c-17.004-0.103-35.42-9.671-51.759-13.318c-34.44-7.684-51.128,10.297-51.136,10.305
		c0.004-0.003,5.581-2.033,8.393-0.206c3.056,1.986,0.361,7.11-0.624,8.134c-2.826,2.943-6.887,5.117-11.374,5.117
		c0,0,4.749,1.141,6.286,2.553c0,0-4.406,0.578-6.806,1.41c-2.398,0.835-7.093,2.192-8.134,2.192c0,0,12.369,5.654,4.692,17.732
		c0,0,5.368-0.82,9.84,1.325c0,0-24.503-3.955-32.793,23.09c3.123-2.574,12.936-9.496,28.211-9.571
		c18.441-0.082,26.353,4.16,33.679,8.599c11.168,6.77,19.613,8.773,26.03,9.97c18.438,3.442,36.954-2.758,44.978-6.498
		c23.29-35.681,25.971-55.836,26.366-70.227C174.305,54.984,161.695,56.839,155.979,56.804z M143.339,98.022
		c-8.244,5.832-21.15,7.612-21.15,7.612c-0.145,0.561-0.999,1.147-0.999,1.147s1.32,0.488,4.563,2.929
		c3.241,2.439,2.363,2.318,3.396,3.017c1.035,0.694,1.622,0.499,1.622,0.499c0.312,0.627,0.351,1.559,0.351,1.559
		c0.433,0.407,2.546,2.425,0.58,4.515c-1.968,2.089-4.242,0.148-4.242,0.148c-0.804,0.17-1.586-0.096-1.586-0.096
		s-4.206,2.65-8.385-0.237c-3.399-2.343-3.194-5.124-2.996-6.082c-1.146,0.657-2.379,1.172-3.643,1.568
		c-3.411,1.069-7.763,1.512-12.086,0.073c-2.84-0.955-5.191-2.612-7.046-4.45c-1.859-1.841-3.233-3.875-4.129-5.704
		c-0.135-0.281-0.262-0.558-0.375-0.826c-0.298,0.708-1.721,3.397-6.129,3.205c-5.075-0.22-6.834-4.868-6.834-4.868
		s-0.783-0.263-1.321-0.88c0,0-2.981,0.178-3.293-2.676c-0.308-2.854,2.599-3.187,3.191-3.25c0,0,0.588-0.722,1.214-1.034
		c0,0,0.354,0.514,1.597,0.581c1.243,0.067,0.471-0.369,4.529-0.358c4.059,0.008,5.404,0.418,5.404,0.418s-0.326-0.985-0.103-1.52
		c0,0-9.218-9.207-12.273-18.831c-3.056-9.625-2.121-13.194,1.59-23.343c0,0,2.751,17.291,11.197,28.155
		c4.819,6.2,10.24,11.034,14.011,14.044c0.085,0,0.174,0.002,0.258,0.002c-0.804-0.896-1.416-1.947-1.72-3.151
		c-0.754-2.975-1.991-5.739-2.557-7.942c-0.566-2.206,0.694-6.615,0.694-6.615c-1.693-2.713-0.868-7.178-0.868-7.178
		s0.917-0.435,1.615-1.281c0.694-0.851,0.453-3.357,1.019-7.047c0.567-3.689,2.967-7.507,8.287-9.678
		c5.289-2.16,13.235,0.673,13.307,0.698c0.07,0.021,8.119,2.553,11.038,7.468c2.932,4.939,2.542,9.437,0.768,12.719
		c-1.774,3.286-3.48,5.138-3.435,6.236c0.042,1.094,0.514,1.994,0.514,1.994s-2.033,4.061-5.025,5.208c0,0-1.654,4.274-3.438,5.691
		c-1.776,1.417-4.434,2.876-6.83,4.795c-0.946,0.757-2.033,1.225-3.191,1.462c0.079,0.057,0.152,0.113,0.23,0.169
		c4.819-0.127,12.028-0.711,19.574-2.741c13.29-3.575,25.914-15.707,25.914-15.707C152.988,88.772,151.579,92.187,143.339,98.022z"
		/>
	<path d="M113.024,79.305l0.198-0.584c0.199-0.599-0.244-0.868-0.269-1.835c-0.034-0.499-0.07-0.984,0.124-1.562
		c0.157-0.468-0.105-0.986-0.594-1.201c-0.033-0.013-0.065-0.027-0.101-0.039c-0.028-0.011-0.06-0.018-0.091-0.025
		c-0.521-0.131-1.049,0.127-1.204,0.595c-0.196,0.581-0.524,0.942-0.851,1.317c-0.604,0.758-1.122,0.705-1.32,1.304l-0.199,0.584
		c-0.113,0.336,0.007,0.691,0.256,0.95c0.12,0.124,0.262,0.23,0.439,0.29c0.552,0.185,1.137-0.075,1.303-0.577
		c0.027-0.082,0.12-0.127,0.209-0.1c0.088,0.032,0.138,0.125,0.109,0.209c-0.171,0.499,0.138,1.058,0.686,1.243
		c0.179,0.057,0.355,0.057,0.521,0.035C112.601,79.857,112.911,79.645,113.024,79.305z"/>
	<path d="M115.486,73.398c0.003,0.655,0.227,3.187,1.336,3.85h0.003c0.007,0.003,0.013,0.007,0.025,0.01
		c1.107,0.758,3.417,1.112,4.515,0.977c0.145-0.017,0.417-0.102,0.424-0.102c0,0,0,0,0.004,0.003
		c0.485-0.273,0.922-0.478,1.317-0.892c0.527-0.549,0.945-1.226,1.247-1.92c0.131-0.308,0.241-0.623,0.329-0.946
		c0,0,0.233-1.073,0.687-1.232c0.05-0.007,0.096-0.014,0.143-0.021l0.031,0.003l-0.003-0.01c0,0-1.41-0.354-3.015-0.17
		c-0.152,0.018-0.305,0.039-0.46,0.063c-1.788,0.326-3.457,0.599-4.601,0.213c-0.375-0.124-0.7-0.337-0.978-0.567
		c-0.003-0.007-0.01-0.01-0.013-0.014c-0.075-0.064-0.146-0.128-0.214-0.192v-0.003c-0.378-0.364-0.626-0.708-0.68-0.787
		c-0.008-0.01-0.021-0.028-0.021-0.028C115.561,71.652,115.483,72.746,115.486,73.398z"/>
	<path d="M102.568,65.494c0.266,0.4-0.195,1.396-0.195,1.396c-0.117,0.291-0.209,0.588-0.287,0.889
		c-0.265,1.031-0.364,2.309,0.06,3.336c0.019,0.035,0.288,0.502,0.273,0.517c-0.024,0.021-0.05,0.042-0.078,0.061
		c0.028-0.018,0.054-0.036,0.078-0.057c0.004,0,0.166,0.23,0.273,0.337c0.793,0.768,2.85,1.876,4.192,1.944
		c0.011,0,0.021,0.007,0.031,0.007c1.282,0.142,2.982-1.743,3.383-2.267c0.396-0.52,1.005-1.452,1.005-1.452
		s-0.467,0.155-1.055,0.227v0.004c-0.092,0.01-0.188,0.018-0.286,0.021c-0.008,0.004-0.016,0.004-0.019,0.004
		c-0.357,0.017-0.75-0.011-1.122-0.135c-1.146-0.382-2.31-1.607-3.541-2.946c-0.106-0.112-0.217-0.223-0.331-0.329
		c-1.132-1.08-2.418-1.643-2.5-1.675c0.009,0.007,0.012,0.011,0.012,0.014l0.008,0.003
		C102.501,65.423,102.537,65.458,102.568,65.494z"/>
	<path fill="#B1BABF" d="M105.652,94.136c0.004,0.002,0.009,0.002,0.015,0.004c0.005,0.001,0.01,0.003,0.014,0.004
		c0.69,0.23,1.347,0.405,2.038,0.483c0.691,0.076,1.421,0.059,2.26-0.089c1.695-0.301,3.636-2.043,4.365-2.559
		c0.731-0.516,3.494-2.341,4.121-2.782c0.626-0.443,1.149-0.813,1.793-1.898c0.644-1.09,1.732-3.622,1.732-3.622
		s-1.045-0.207-1.391-0.248c0,0-0.006,0.009-0.017,0.028c-0.153,0.272-1.399,2.47-1.854,2.93c0,0-0.014,0.002-0.037,0.006
		c0.271,0.156,1.062,0.651,1.195,1.234c0,0-1.327,1.221-2.961,1.942c-1.638,0.72-4.112,2.281-5.087,2.93
		c-0.369,0.245-0.871,0.458-1.506,0.576c-0.396-0.707-1.773-1.579-3.537-2.172c-1.844-0.62-3.538-0.739-4.229-0.354
		c-0.503-0.517-0.811-1.032-0.969-1.487c-0.384-1.106-1.418-3.845-2.287-5.404c-0.871-1.561-1.192-3.335-1.192-3.335
		c0.555-0.464,1.802-0.248,1.802-0.248c-0.011-0.085-0.014-0.204-0.013-0.345c0.013-0.922,0.268-2.84,0.303-3.109
		c0.002-0.021,0.004-0.031,0.004-0.031c-0.298-0.175-1.26-0.641-1.26-0.641s-0.002,0.01-0.006,0.03
		c-0.074,0.299-0.658,2.725-0.793,3.903c-0.144,1.255,0.05,1.865,0.285,2.596c0.234,0.729,1.335,3.852,1.607,4.704
		c0.034,0.106,0.071,0.239,0.113,0.394c0.293,1.078,0.801,3.175,1.826,4.279C103.148,93.106,104.271,93.67,105.652,94.136z"/>
	<path fill="#B1BABF" d="M109.414,66.334c1.238,1.43,3.189,3.222,4.365,3.601c1.169,0.407,3.803,0.156,5.659-0.237
		c1.866-0.301,4.636,0.01,4.636-0.029c-1.144-1.417-5.04-1.012-7.236-0.911c-1.9,0.149-2.471-0.134-2.602-0.183
		c-0.128-0.036-0.755-0.157-2.188-1.423c-1.687-1.407-4.551-4.077-6.314-3.637C105.733,63.56,108.113,64.977,109.414,66.334z"/>
	<path fill="#B1BABF" d="M102.143,73.072c-0.045-0.064-0.623-0.893,0.113-1.324c0.028-0.018,0.058-0.035,0.085-0.057
		c0.028-0.018,0.054-0.039,0.078-0.061c0.015-0.014-0.255-0.482-0.273-0.517c-0.424-1.027-0.324-2.306-0.06-3.336
		c0.078-0.301,0.17-0.598,0.287-0.889c0,0,0.461-0.995,0.195-1.396c-0.031-0.035-0.067-0.071-0.099-0.103l-0.008-0.003l-0.022-0.014
		c0,0-1.447,2.652-1.576,4.026C100.732,70.778,100.642,72.062,102.143,73.072z"/>
	<path fill="#B1BABF" d="M106.916,73.922c0,0,0.025,0.428-0.889,1.037c0,0,1.474,0.471,2.581-0.138
		c1.113-0.608,2.582-3.389,4.452-2.784c1.855,0.648,1.354,3.751,1.869,4.905c0.5,1.123,1.889,1.636,1.973,1.664
		c-0.354-1.03-0.077-1.359-0.077-1.359h-0.003c-1.109-0.663-1.333-3.194-1.336-3.85c-0.003-0.652,0.074-1.746,0.078-1.764
		c-0.833,0.428-3.874-0.591-4.261-1.431c0,0-0.608,0.932-1.005,1.452C109.898,72.18,108.198,74.064,106.916,73.922z"/>
	<path fill="#B1BABF" d="M125.373,73.146c-0.453,0.159-0.687,1.232-0.687,1.232c-0.088,0.323-0.198,0.638-0.329,0.946
		c-0.302,0.694-0.72,1.371-1.247,1.92c-0.396,0.414-0.832,0.619-1.317,0.892c0.015,0.063,0.032,0.124,0.057,0.185
		c0.337,0.825-0.714,1.129-0.714,1.129c1.812,0.099,2.51-0.985,3.238-2.161c0.73-1.171,1.173-4.161,1.173-4.161l-0.031-0.003
		C125.469,73.132,125.423,73.14,125.373,73.146z"/>
	<path fill="#B1BABF" d="M100.38,75.537c0.711,0.311,1.416,0.644,2.093,1.027c1.013,0.574,2.104,1.25,2.524,2.401
		c0.004,0.01,0.004,0.021,0.012,0.032c0.112,0.29,0.122,0.651,0.045,0.949c0-0.039-0.018-0.089-0.042-0.142
		c-0.094-0.181-0.252-0.312-0.354-0.482c0-0.003-0.004-0.006-0.01-0.014c-0.228-0.258-0.472-0.495-0.758-0.69c0,0,0,0.007,0,0.011
		l-0.008-0.014c0,0-0.219,0.769-0.563,1.334c-0.194,0.326-0.402,0.688-0.622,1.183c0,0.008-0.004,0.015-0.008,0.021
		c-0.429,1.112,0.071,2.289,0.188,2.295c0.139,0.01,0.432-0.125,0.987-1.686c0.014-0.036,0.043-0.11,0.062-0.192
		c0.014-0.074-0.011-0.209-0.043-0.318c0,0,0.004-0.007,0.008-0.018c0.067-0.255,0.393-0.234,0.598-0.209
		c0.071,0.007,0.142,0.018,0.208,0.035c0.124-0.308,0.28-0.733,0.355-1.09c0.233-0.868,0.205-2.089-0.802-3.24
		c-1.009-1.151-3.604-2.008-4.574-2.497c-0.974-0.489-1.849-2.837-1.731-4.458c0,0-0.092,0.903-0.092,1.813
		c0,0.364,0.011,0.733,0.05,1.041c0.022,0.155,0.05,0.297,0.082,0.418C98.262,74.01,98.293,74.62,100.38,75.537z"/>
	<path fill="#B1BABF" d="M114.789,84.754c0.074,0.042,0.194,0.089,0.24,0.163c0.105,0.152,0.135,0.213,0.135,0.213
		c-0.104,0.017-0.205,0.032-0.308,0.049c-0.058-0.004-0.312,0.088-0.312,0.167c-0.495,1.586-0.343,1.866-0.227,1.941
		c0.101,0.063,1.204-0.57,1.533-1.718c0-0.007,0.185-0.964,0.224-1.342c0.068-0.613,0.322-1.31,0.354-1.396l-0.008,0.003
		c0-0.003,0.008-0.01,0.008-0.01c-1.121-0.053-1.749,0.39-1.749,0.39s-0.318,0.556-0.407,1.299
		C114.271,84.517,114.703,84.708,114.789,84.754z"/>
	<path fill="#B1BABF" d="M122.487,81.89c-1.073-0.198-3.658-1.077-5.156-0.768c-1.232,0.255-1.972,0.952-2.383,1.657
		c0.003-0.004,0.007-0.01,0.014-0.01c0.008-0.008,0.011-0.008,0.015-0.015c0.828-0.955,2.332-0.917,3.471-0.771
		c0.888,0.109,1.77,0.298,2.641,0.506c2.221,0.524,2.614,0.061,3.414-0.542c0.688-0.518,1.25-1.314,1.668-2.058
		c0.01-0.014,0.018-0.025,0.025-0.039C125.189,81.036,123.432,82.063,122.487,81.89z"/>
	<path fill="#B1BABF" d="M113.411,77.308V77.3l-0.004-0.014c-0.035-0.488-0.07-0.857,0.082-1.317
		c0.24-0.721-0.204-1.525-1.005-1.846c0.488,0.215,0.751,0.733,0.594,1.201c-0.194,0.577-0.158,1.062-0.124,1.562
		c0.024,0.967,0.468,1.236,0.269,1.835l-0.198,0.584c-0.113,0.34-0.424,0.552-0.782,0.605c0,0.007-0.003,0.014-0.008,0.021
		c-0.187,0.556-0.768,0.705-0.768,0.705s0,0,0,0.003c0.864,0.287,1.771-0.085,2.022-0.84l0.188-0.56
		c0.148-0.411,0.031-0.811-0.065-1.062C113.518,77.91,113.428,77.701,113.411,77.308z"/>
	<path fill="#B1BABF" d="M108.719,77.86l0.199-0.584c0.198-0.599,0.716-0.545,1.32-1.304c0.326-0.375,0.654-0.736,0.851-1.317
		c0.155-0.467,0.683-0.726,1.204-0.595c-0.843-0.237-1.683,0.142-1.928,0.856c-0.152,0.461-0.406,0.737-0.737,1.102v0.003
		l-0.01,0.015c-0.251,0.301-0.446,0.414-0.687,0.57c-0.234,0.142-0.563,0.393-0.694,0.811l-0.188,0.56
		c-0.251,0.75,0.246,1.594,1.105,1.884c0,0-0.375-0.468-0.188-1.027c0-0.008,0.004-0.018,0.008-0.024
		C108.726,78.551,108.605,78.196,108.719,77.86z"/>
	<path fill="#FFFFFF" d="M98.12,80.324c0,0,0.321,1.775,1.192,3.335c0.869,1.56,1.903,4.298,2.287,5.404
		c0.158,0.455,0.466,0.97,0.969,1.487c0.691-0.385,2.386-0.266,4.229,0.354c1.764,0.593,3.142,1.465,3.537,2.172
		c0.635-0.118,1.137-0.331,1.506-0.576c0.975-0.649,3.449-2.21,5.087-2.93c1.634-0.721,2.961-1.942,2.961-1.942
		c-0.134-0.583-0.925-1.078-1.195-1.234c-0.163,0.03-0.81,0.159-1.134,0.397c-0.37,0.273-1.714,2.275-3.477,3.027
		c0.166-0.99-0.474-1.504-0.638-1.486c-0.164,0.019-0.294,0.408-0.328,0.506c-0.033,0.1-0.374,0.77-0.49,1.083
		c-0.117,0.315-0.08,0.339-0.08,0.339c-0.283-0.008-0.566-0.024-0.848-0.046c0.271-0.508,0.511-1.014,0.738-1.518
		c0.164-0.42-0.285-0.512-0.285-0.512l-0.004-0.003c-0.249-0.039-0.501-0.081-0.751-0.128c-0.01-0.001-0.018,0-0.027,0
		c-0.315-0.056-0.506,0.141-0.547,0.261c-0.029,0.08-0.06,0.159-0.094,0.238c-0.114,0.278-0.239,0.555-0.359,0.833
		c-0.005,0.015-0.01,0.033-0.019,0.048c-0.142,0.351-0.021,0.644-0.021,0.644c-0.099-0.007-0.332,0.001-0.726-0.077
		c-0.187-0.037-0.436-0.147-0.436-0.147c0.139-0.114,0.224-0.329,0.224-0.329l0.003,0.002c0.251-0.613,0.637-1.564,0.637-1.564
		s0.153-0.41-0.114-0.488c-0.359-0.09-0.719-0.189-1.076-0.296c-0.271-0.058-0.389,0.165-0.42,0.237
		c-0.055,0.145-0.152,0.366-0.185,0.465c-0.138,0.392-0.274,0.781-0.41,1.169c0,0.006,0,0.01-0.001,0.015
		c-0.084,0.251-0.018,0.485-0.018,0.485s-0.348-0.07-0.529-0.119c-0.185-0.048-0.458-0.24-0.458-0.24
		c0.043-0.046,0.097-0.17,0.136-0.259c0.166-0.581,0.322-1.309,0.462-1.916c0.011-0.085,0.012-0.338-0.244-0.445
		c-0.304-0.111-0.608-0.228-0.907-0.351c-0.266-0.083-0.382,0.135-0.423,0.264c-0.121,0.55-0.262,1.207-0.353,1.684
		c-0.038,0.335,0.113,0.57,0.113,0.57c-0.141-0.034-0.425-0.158-0.652-0.254c-0.15-0.062-0.482-0.281-0.482-0.281
		c0.171-0.015,0.268-0.377,0.268-0.377c0.189-0.392,0.315-0.731,0.463-1.104c0.006-0.017,0.014-0.032,0.019-0.051
		c0.005-0.011,0.006-0.019,0.014-0.034c0.147-0.394-0.129-0.603-0.175-0.636c-0.395-0.197-0.839-0.429-0.844-0.429
		c-0.226-0.121-0.377,0.039-0.426,0.194c-0.156,0.443-0.401,0.846-0.486,1.333c-0.04,0.276-0.017,0.469-0.017,0.469
		c-0.539-0.256-0.736-0.662-0.736-0.662c0.128-0.155,0.301-0.698,0.305-1.207c0.006-0.509,0.036-0.983-0.201-1.152
		c-0.237-0.168-0.634,0.259-0.839,0.561c-0.202,0.301-0.25,0.478-0.25,0.478c0,0.014,0,0.027,0,0.04
		c-0.954-1.662-0.821-4.078-0.949-4.522c-0.134-0.44-0.694-1.029-0.694-1.029S98.674,79.86,98.12,80.324z"/>
	<path fill="#FFFFFF" d="M112.384,74.085c0.035,0.011,0.067,0.025,0.101,0.039C112.451,74.109,112.419,74.096,112.384,74.085z"/>
	<path fill="#B1BABF" d="M138.448,95.573l-0.068,0.056c0,0-9.076,5.402-22.864,6.389c0.44,0.654,0.831,1.306,1.157,1.94
		c4.291-0.241,8.632-0.838,12.735-1.976c2.623-0.728,5.206-1.651,7.669-2.812c2.479-1.172,4.911-2.572,7.049-4.297
		c1.396-1.125,2.702-2.339,3.9-3.67c1.649-1.833,3.155-4.015,3.97-6.36c0,0,0.066-0.194,0.065-0.193
		C151.995,84.805,149.369,90.836,138.448,95.573z"/>
	<path fill="#FFFFFF" d="M113.131,99.083c0.554,0.569,1.058,1.15,1.518,1.739c0,0,1.465-0.105,1.668-0.124
		c2.53-0.21,5.059-0.519,7.557-0.969c6.182-1.116,10.856-2.696,13.075-3.53c0.521-0.205,1.016-0.416,1.5-0.626
		c10.921-4.737,13.547-10.768,13.613-10.922c-0.015,0.027-0.452,0.388-1.156,0.958c-0.301,0.248-0.632,0.518-1.007,0.813
		c-4.103,3.241-12.661,9.069-26.597,11.572C119.924,98.602,116.483,98.935,113.131,99.083z"/>
	<path fill="#D50A0A" d="M115.188,109.525c-2.822,1.776-9.116,3.421-15.18,1.389c-5.951-1.999-9.904-7.085-11.171-10.183
		c-0.148-0.32-0.187-1.188,0.683-1.591c0,0-0.55,0.079-1.044,0.484c0,0-0.043,0.064-0.088,0.197c-0.667,1.986,3.366,10.445,10.98,13
		c7.618,2.557,15.856-1.531,16.601-3.745c0.052-0.162,0.062-0.289,0.062-0.289c-0.173-0.544-0.505-0.882-0.505-0.882
		C115.949,108.706,115.516,109.292,115.188,109.525z"/>
	<path fill="#FF7900" d="M104.986,96.078c-7.017-2.354-14.631,1.125-16.305,3.238c-0.068,0.086-0.132,0.176-0.186,0.271
		c-0.006,0.011-0.012,0.03-0.021,0.037c0.495-0.405,1.044-0.484,1.044-0.484c-0.87,0.403-0.832,1.271-0.683,1.591
		c1.267,3.098,5.22,8.184,11.171,10.183c6.064,2.032,12.358,0.388,15.18-1.389c0.328-0.233,0.762-0.819,0.338-1.619
		c0,0,0.332,0.338,0.505,0.882c0.072-0.527-0.042-1.273-0.335-2.146C114.565,103.276,110.797,98.028,104.986,96.078z
		 M109.419,104.091c-0.004,0.096-0.009,0.19-0.016,0.288c-0.25-0.128-0.503-0.254-0.762-0.38c-0.095,0.576-0.235,1.146-0.428,1.705
		c-0.381-0.222-0.771-0.435-1.163-0.638c0.173-0.534,0.308-1.076,0.411-1.622c-0.42-0.189-0.849-0.377-1.286-0.559
		c-0.114,0.518-0.253,1.032-0.415,1.548c-0.401-0.185-0.807-0.362-1.216-0.53c0.16-0.5,0.305-1.001,0.436-1.499
		c-0.428-0.165-0.863-0.326-1.306-0.48c-0.15,0.482-0.307,0.973-0.47,1.463c-0.415-0.149-0.832-0.291-1.252-0.421
		c0.166-0.49,0.335-0.973,0.506-1.449c-0.445-0.142-0.889-0.275-1.33-0.4c-0.195,0.475-0.382,0.96-0.557,1.454
		c-0.425-0.113-0.856-0.216-1.288-0.312c0.18-0.504,0.381-0.996,0.599-1.477c-0.46-0.118-0.916-0.227-1.367-0.325
		c-0.244,0.493-0.461,1.003-0.644,1.53c-0.436-0.075-0.875-0.14-1.314-0.194c0.182-0.555,0.411-1.088,0.679-1.599
		c-0.283-0.055-0.563-0.106-0.841-0.153c0.06-0.092,0.122-0.183,0.184-0.271c-2.586-0.461-4.935-0.652-6.833-0.669
		c1.573-0.351,4.262-0.514,7.43-0.137c0.023-0.03,0.047-0.062,0.072-0.092c0.24,0.028,0.483,0.062,0.729,0.096
		c0.218-0.315,0.449-0.621,0.694-0.918c0.41,0.055,0.81,0.113,1.202,0.18c-0.223,0.306-0.437,0.62-0.638,0.943
		c0.433,0.078,0.874,0.167,1.318,0.269c0.182-0.332,0.37-0.658,0.566-0.975c0.373,0.081,0.74,0.167,1.102,0.26
		c-0.166,0.328-0.328,0.664-0.486,1.005c0.413,0.111,0.83,0.231,1.249,0.361c0.131-0.35,0.264-0.696,0.396-1.037
		c0.352,0.109,0.7,0.226,1.047,0.351c-0.102,0.352-0.204,0.707-0.311,1.065c0.412,0.147,0.817,0.301,1.214,0.459
		c0.079-0.364,0.151-0.728,0.217-1.088c0.347,0.144,0.69,0.296,1.038,0.459c-0.037,0.365-0.082,0.735-0.137,1.106
		c0.414,0.186,0.819,0.376,1.213,0.57c0.032-0.371,0.052-0.744,0.058-1.115c0.354,0.183,0.708,0.378,1.067,0.581
		c0.016,0.374,0.017,0.748,0.002,1.122c0.216,0.117,0.429,0.237,0.638,0.356c0.002,0.059,0.002,0.118,0.004,0.177
		c2.674,1.565,4.664,3.254,5.679,4.463C113.622,106.465,111.688,105.247,109.419,104.091z"/>
	<path d="M89.748,99.1c1.898,0.017,4.246,0.208,6.833,0.669c0.191-0.277,0.39-0.546,0.597-0.806
		C94.01,98.586,91.321,98.75,89.748,99.1z"/>
	<path d="M109.431,103.099c0.008,0.328,0.004,0.658-0.012,0.992c2.27,1.156,4.203,2.374,5.69,3.471
		C114.095,106.353,112.104,104.664,109.431,103.099z"/>
	<path fill="#FFFFFF" d="M109.431,103.099c-0.002-0.059-0.002-0.118-0.004-0.177c-0.209-0.119-0.422-0.239-0.638-0.356
		c0.015-0.374,0.014-0.748-0.002-1.122c-0.359-0.203-0.714-0.398-1.067-0.581c-0.006,0.371-0.025,0.744-0.058,1.115
		c-0.394-0.194-0.799-0.385-1.213-0.57c0.055-0.371,0.1-0.741,0.137-1.106c-0.348-0.163-0.691-0.315-1.038-0.459
		c-0.065,0.36-0.138,0.724-0.217,1.088c-0.396-0.158-0.802-0.312-1.214-0.459c0.106-0.358,0.209-0.714,0.311-1.065
		c-0.347-0.125-0.695-0.241-1.047-0.351c-0.132,0.341-0.265,0.688-0.396,1.037c-0.419-0.13-0.836-0.25-1.249-0.361
		c0.158-0.341,0.32-0.677,0.486-1.005c-0.361-0.093-0.729-0.179-1.102-0.26c-0.196,0.316-0.385,0.643-0.566,0.975
		c-0.444-0.102-0.885-0.19-1.318-0.269c0.202-0.323,0.416-0.638,0.638-0.943c-0.392-0.066-0.792-0.125-1.202-0.18
		c-0.245,0.297-0.477,0.603-0.694,0.918c-0.246-0.034-0.489-0.067-0.729-0.096c-0.025,0.03-0.049,0.062-0.072,0.092
		c-0.207,0.26-0.406,0.528-0.597,0.806c-0.062,0.089-0.125,0.18-0.184,0.271c0.277,0.047,0.558,0.099,0.841,0.153
		c-0.268,0.511-0.497,1.044-0.679,1.599c0.439,0.055,0.878,0.119,1.314,0.194c0.183-0.526,0.399-1.037,0.644-1.53
		c0.451,0.098,0.907,0.207,1.367,0.325c-0.218,0.48-0.418,0.973-0.599,1.477c0.432,0.096,0.863,0.198,1.288,0.312
		c0.175-0.494,0.361-0.979,0.557-1.454c0.441,0.125,0.885,0.259,1.33,0.4c-0.171,0.477-0.34,0.959-0.506,1.449
		c0.42,0.13,0.837,0.271,1.252,0.421c0.163-0.49,0.319-0.98,0.47-1.463c0.442,0.154,0.878,0.315,1.306,0.48
		c-0.131,0.498-0.275,0.999-0.436,1.499c0.409,0.168,0.814,0.346,1.216,0.53c0.162-0.516,0.301-1.03,0.415-1.548
		c0.438,0.182,0.866,0.369,1.286,0.559c-0.104,0.546-0.238,1.088-0.411,1.622c0.393,0.203,0.782,0.416,1.163,0.638
		c0.192-0.559,0.333-1.129,0.428-1.705c0.259,0.126,0.512,0.252,0.762,0.38c0.007-0.098,0.012-0.192,0.016-0.288
		C109.435,103.757,109.438,103.427,109.431,103.099z"/>
	<path fill="#FFFFFF" d="M78.686,75.636l0.393,0.705c0.255,0.417,0.576,0.974,0.989,1.649c1.981,3.173,4.616,6.585,8.144,10.137
		c0.011,0.01,4.397,4.337,6.266,5.983c0.724-0.198,1.484-0.361,2.269-0.489c-2.604-2.153-5.169-4.51-7.516-7.051
		C77.372,73.722,75.106,61.778,74.344,58.57C74.344,58.57,73.216,65.617,78.686,75.636z"/>
	<path fill="#B1BABF" d="M89.735,94.299c0.126,0.111,1.157,1.138,1.26,1.09c0.643-0.307,1.346-0.59,2.093-0.851
		c-10.457-9.122-14.433-18.959-14.433-18.959l0.031,0.057c-5.469-10.019-4.341-17.065-4.341-17.065s-0.068,0.201-0.068,0.202
		c-0.458,1.349-0.631,2.822-0.706,4.239c-0.126,2.396,0.098,4.808,0.605,7.151c0.539,2.491,1.399,4.89,2.456,7.206
		c1.081,2.37,2.417,4.62,3.906,6.756c1.833,2.632,3.923,5.081,6.19,7.348C87.701,92.446,88.705,93.386,89.735,94.299z"/>
	<path fill="#B1BABF" d="M79.079,76.34l-0.393-0.705C78.813,75.869,78.943,76.104,79.079,76.34z"/>
	<path fill="#B1BABF" d="M77.547,98.232c-0.092,0.188-0.155,0.364-0.152,0.498c0.005,0.203,0.102,0.388,0.194,0.522
		c0,0,3.241,0.174,5.278,0.733c0.082-0.292,0.186-0.646,0.326-1.079c0.087-0.273,0.205-0.506,0.336-0.714
		c-0.007,0.007-0.013,0.014-0.02,0.02C82.664,98.067,79.314,98.023,77.547,98.232z"/>
	<path fill="#FFFFFF" d="M77.547,98.232c1.768-0.209,5.117-0.165,5.963-0.02c0.006-0.006,0.013-0.013,0.02-0.02
		c0.488-0.772,1.214-1.117,1.739-1.292c-0.876-0.139-1.903-0.256-2.787-0.335c-0.439-0.039-0.878-0.069-1.318-0.092
		c-0.279-0.013-0.558-0.021-0.837-0.028c-0.578,0.112-1.243,0.32-1.707,0.625C78.079,97.42,77.731,97.858,77.547,98.232z"/>
	<path fill="#FFFFFF" d="M76.802,98.28c0.021-0.023,0.095-0.163,0.108-0.189c0.203-0.385,0.603-0.75,0.977-0.969
		c0.004-0.003,0.007-0.006,0.011-0.008c0.654-0.393,1.682-0.631,2.332-0.667c0.018-0.001-0.229-0.007-0.354-0.006
		c-0.806,0.004-1.612,0.083-2.411,0.194c-0.708,0.099-1.387,0.222-2.042,0.217c-0.208-0.001-0.409-0.017-0.603-0.054
		c-0.002,0-0.007,0-0.011,0c0.003,0,0.008,0,0.011,0c-0.184-0.034-0.363-0.086-0.538-0.16C74.291,96.666,74.671,98.28,76.802,98.28z
		"/>
	<path fill="#B1BABF" d="M87.646,93.401c-0.115,0.032-0.196,0.126-0.164,0.311c0.03,0.183,0.218,0.715-0.055,1.535
		c-0.274,0.822-0.888,1.352-1.494,1.617c-0.604,0.265-1.348,0.864-1.556,1.843c-0.207,0.979-0.736,2.267-0.589,3.119
		c0.057,0.325,0.377,0.773,1.116,0.74c-0.505,0.419-0.982,0.388-1.37,0.211c-0.612,1.129-1.534,1.595-3.21,1.27
		c-1.716-0.333-3.889-1.979-4.339-4.754c0-0.061,0.827-0.056,0.903-0.056c0.004,0,0.007,0,0.012,0
		c-0.102-0.133-0.211-0.325-0.218-0.531c-0.002-0.117,0.045-0.266,0.12-0.425c-2.13,0-2.511-1.614-2.519-1.642
		c0,0-0.676,0.542-0.705,1.47c-0.073-0.382-0.379-0.696-0.784-0.756c-0.513-0.079-0.995,0.274-1.072,0.789s0.278,0.996,0.792,1.073
		c0.513,0.078,0.995-0.276,1.072-0.791c0.001-0.012,0.002-0.023,0.003-0.037c0.012,0.111,0.033,0.225,0.066,0.343
		c0.089,0.327,0.211,0.562,0.336,0.739c0.3,0.425,0.626,0.484,0.626,0.484c0.003,0.001,0.045-0.059,0.049-0.063
		c0.022-0.025,0.213-0.226,0.238-0.209c-0.216-0.141-1.135-0.836-0.576-2.357c0,0-0.032,1.373,1.104,2.104
		c0.125,0.568,1.016,3.965,4.347,5.022c3.637,1.156,5.038-0.577,5.364-1.23c0.148-0.3,0.521-1.227,0.521-1.227
		c0.315-0.902,1.114-4.416,1.415-4.826c0.299-0.411,1.201-2.056,0.836-3.567C87.915,93.599,87.84,93.351,87.646,93.401z"/>
	<path fill="#FFFFFF" d="M120.229,108.633c0.314,0.455,0.689,1.199,0.615,2.106c0.759,0.394,3.459,2.378,4.742,3.612
		c0.078-0.409,0.063-0.968-0.156-1.572c-0.187-0.524-0.59-1.091-0.984-1.529c-0.052-0.037-0.104-0.076-0.154-0.113
		c-0.404-0.291-0.818-0.565-1.237-0.835c-0.587-0.377-1.182-0.738-1.785-1.086c-0.286-0.165-0.575-0.324-0.863-0.487
		C120.345,108.693,120.287,108.665,120.229,108.633z"/>
	<path fill="#FFFFFF" d="M125.981,113.245c0.155,0.387,0.242,0.863,0.217,1.278c-0.007,0.115-0.023,0.218-0.044,0.314
		c0.002,0.001,0.004,0.006,0.005,0.009c0.075,0.057,0.148,0.107,0.222,0.157c0.117,0.079,0.241,0.149,0.367,0.214
		c0.198,0.103,0.407,0.183,0.625,0.235c0.155,0.037,0.329,0.062,0.49,0.062c0.467,0,0.901-0.183,1.271-0.459
		c0.005-0.004,0.012-0.009,0.017-0.013c-0.181-0.043-0.351-0.106-0.515-0.187c-0.178-0.087-0.352-0.201-0.521-0.326
		c-0.226-0.169-0.889-0.795-1.049-0.957c-0.219-0.221-0.439-0.438-0.659-0.655c-0.268-0.264-0.85-0.801-1.12-1.008
		c-0.061-0.043-0.773-0.616-0.773-0.616C124.538,111.317,125.724,112.565,125.981,113.245z"/>
	<path fill="#B1BABF" d="M127.373,115.453c-0.218-0.053-0.427-0.133-0.625-0.235c-0.126-0.064-0.25-0.135-0.367-0.214
		c-0.073-0.05-0.146-0.101-0.222-0.157c-0.002-0.003-0.005-0.005-0.007-0.007c-0.039,0.172-0.09,0.319-0.161,0.409
		c-0.131,0.162-0.336,0.25-0.493,0.295c0.003,0,0.007,0.005,0.01,0.007c0.237,0.191,0.482,0.359,0.685,0.587
		c-2.034,1.943-4.759,1.945-6.329,1.176c-1.536-0.753-1.988-1.682-1.793-2.957c-0.416-0.091-0.816-0.347-0.965-0.985
		c0.013,0.012,0.031,0.02,0.045,0.03c0.354,0.287,0.932,0.392,1.289,0.052c0.322-0.307,0.572-0.811,0.797-1.351
		c0.207-0.496,0.386-1.005,0.612-1.491c0.094-0.197,0.158-0.412,0.194-0.627c0.102-0.604-0.024-1.249-0.322-1.784
		c-0.322-0.575-0.495-1.369-0.215-2.191c0.276-0.815,0.747-1.129,0.881-1.256c0.137-0.126,0.128-0.252,0.057-0.347
		c-0.124-0.157-0.331-0.005-0.331-0.005c-1.204,0.985-1.477,2.841-1.484,3.351c-0.008,0.509-1.491,3.792-1.784,4.701
		c-0.013,0.036-0.265,0.818-0.324,1.292c-0.09,0.725-0.062,2.944,3.534,4.219c3.293,1.166,6.043-1.02,6.486-1.399
		c0.926,0.068,1.598-0.414,1.925-0.737c0.148-0.146,0.235-0.26,0.235-0.26c-0.355,1.168-1.097,1.456-1.55,1.52
		c-0.148,0.021-0.266,0.02-0.329,0.013c0.01,0.03,0.014,0.055,0.021,0.081c0.053,0.196,0.04,0.312,0.04,0.312
		s0.108,0.052,0.293,0.063c0.262,0.015,0.681-0.048,1.216-0.459c0.091-0.071,0.161-0.147,0.233-0.222
		c-0.21,0.441-0.048,0.975,0.39,1.211c0.452,0.246,1.019,0.076,1.263-0.376c0.246-0.45,0.077-1.017-0.375-1.262
		c-0.333-0.182-0.726-0.137-1.008,0.078c0.273-0.45,0.306-0.913,0.289-1.203c-0.002-0.049-0.032-0.274-0.036-0.276
		c-0.003,0.002-0.009,0.005-0.013,0.009c-0.369,0.276-0.804,0.459-1.271,0.459C127.702,115.516,127.528,115.49,127.373,115.453z"/>
	<path fill="#B1BABF" d="M120.676,111.485c-0.153,0.429-0.281,0.776-0.393,1.055c1.808,0.813,3.523,1.828,4.652,2.603
		c0.159-0.055,0.345-0.142,0.473-0.302c0.081-0.104,0.138-0.284,0.178-0.489c-1.283-1.234-3.983-3.219-4.742-3.612
		C120.844,110.739,120.773,111.208,120.676,111.485z"/>
	<path fill="#B1BABF" d="M115.523,52.332c-10.081-1.717-12.025,5.846-12.06,7.684c-0.025,1.342,0.062,2.25,0.021,2.787
		c-1.465,0.613-3.033,0.835-3.033,0.835c0.084-0.85,0.08-2.727,0.445-4.207c0.343-1.392,2.666-7.468,10.832-7.503
		c0.846,0,1.752,0.06,2.726,0.198c0.352,0.061,0.69,0.128,1.021,0.195C115.492,52.324,115.506,52.328,115.523,52.332z"/>
	<path d="M130.232,94.146c-7.546,2.03-14.755,2.614-19.574,2.741c-0.078-0.056-0.151-0.112-0.23-0.169
		c1.158-0.237,2.245-0.705,3.191-1.462c2.396-1.919,5.054-3.378,6.83-4.795c1.784-1.417,3.438-5.691,3.438-5.691
		c2.992-1.147,5.025-5.208,5.025-5.208s-0.472-0.9-0.514-1.994c-0.046-1.098,1.66-2.95,3.435-6.236
		c1.774-3.282,2.164-7.78-0.768-12.719c-2.919-4.915-10.968-7.447-11.038-7.468c-0.071-0.025-8.018-2.858-13.307-0.698
		c-5.32,2.171-7.72,5.989-8.287,9.678c-0.566,3.69-0.325,6.197-1.019,7.047c-0.698,0.846-1.615,1.281-1.615,1.281
		s-0.825,4.465,0.868,7.178c0,0-1.261,4.409-0.694,6.615c0.566,2.203,1.803,4.967,2.557,7.942c0.304,1.204,0.917,2.256,1.72,3.151
		c-0.084,0-0.173-0.002-0.258-0.002c-3.771-3.011-9.192-7.844-14.011-14.044c-8.445-10.864-11.197-28.155-11.197-28.155
		c-3.711,10.148-4.646,13.718-1.59,23.343c3.056,9.624,12.273,18.831,12.273,18.831c-0.223,0.535,0.103,1.52,0.103,1.52
		s-1.346-0.41-5.404-0.418c-4.058-0.011-3.286,0.425-4.529,0.358c-1.242-0.067-1.597-0.581-1.597-0.581
		c-0.626,0.312-1.214,1.034-1.214,1.034c-0.592,0.064-3.499,0.397-3.191,3.25c0.312,2.854,3.293,2.676,3.293,2.676
		c0.539,0.617,1.321,0.88,1.321,0.88s1.76,4.648,6.834,4.868c4.408,0.192,5.832-2.497,6.129-3.205
		c0.113,0.269,0.24,0.545,0.375,0.826c0.896,1.829,2.27,3.863,4.129,5.704c1.855,1.838,4.207,3.495,7.046,4.45
		c4.324,1.438,8.675,0.996,12.086-0.073c1.264-0.396,2.496-0.911,3.643-1.568c-0.198,0.958-0.403,3.739,2.996,6.082
		c4.179,2.888,8.385,0.237,8.385,0.237s0.782,0.266,1.586,0.096c0,0,2.274,1.94,4.242-0.148c1.966-2.09-0.147-4.107-0.58-4.515
		c0,0-0.038-0.932-0.351-1.559c0,0-0.587,0.195-1.622-0.499c-1.033-0.698-0.155-0.577-3.396-3.017
		c-3.243-2.44-4.563-2.929-4.563-2.929s0.854-0.587,0.999-1.147c0,0,12.906-1.78,21.15-7.612c8.24-5.835,9.649-9.25,12.808-19.582
		C156.146,78.44,143.522,90.571,130.232,94.146z M97.901,72.629c-0.039-0.309-0.05-0.677-0.05-1.042c0-0.91,0.092-1.812,0.092-1.812
		s1.221-0.786,1.844-1.937c0.63-1.147,1.147-3.417,1.147-3.417c2.355-0.266,4.558-2.772,4.692-2.928
		c-0.584,0.562-1.35,0.984-2.143,1.31c-1.465,0.613-3.033,0.835-3.033,0.835c0.084-0.85,0.08-2.727,0.445-4.207
		c0.343-1.392,2.666-7.468,10.832-7.503c0.846,0,1.752,0.06,2.726,0.198c0.352,0.061,0.69,0.128,1.021,0.195
		c0.018,0.003,0.031,0.007,0.049,0.011c1.859,0.386,3.35,0.836,3.739,0.959c0.039,0.015,0.075,0.025,0.113,0.04
		c0.192,0.061,0.454,0.145,0.769,0.262c0.088,0.036,0.185,0.071,0.288,0.11c0.13,0.05,0.269,0.103,0.413,0.163
		c0.191,0.075,0.394,0.159,0.606,0.255c0.209,0.095,0.429,0.194,0.654,0.304l0.411,0.173c10.555,5.078,8.229,13.098,7.624,14.631
		c-0.549,1.378-1.64,2.737-2.118,3.513c-0.559-0.612-1.313-1.526-1.88-2.549c-0.371-0.666-0.658-1.374-0.769-2.082
		c0,0,0.206,3.491,1.977,5.17c0,0-0.953,2.128-1.151,3.42c-0.194,1.296,0.308,2.66,0.308,2.66s-0.127,0.205-0.312,0.488
		c-0.007,0.014-0.018,0.025-0.025,0.04c-0.418,0.743-0.979,1.54-1.67,2.057c-0.801,0.602-1.19,1.065-3.414,0.541
		c-0.871-0.208-1.754-0.396-2.642-0.506c-1.138-0.144-2.642-0.184-3.471,0.772c-0.003,0.007-0.006,0.007-0.014,0.015
		c-0.11,0.131-0.212,0.276-0.283,0.445c0,0,0.626-0.442,1.75-0.389c0,0-0.009,0.007-0.009,0.01l0.009-0.003
		c-0.033,0.085-0.287,0.783-0.354,1.396c-0.04,0.379-0.224,1.335-0.224,1.345c-0.33,1.147-1.434,1.778-1.533,1.714
		c-0.116-0.074-0.269-0.354,0.227-1.94c0-0.077,0.255-0.17,0.311-0.166c0.104-0.018,0.206-0.032,0.311-0.049
		c0,0-0.029-0.061-0.136-0.209c-0.046-0.079-0.166-0.124-0.241-0.167c-0.085-0.045-0.517-0.237-0.517-0.241
		c-0.219-0.095-0.407-0.17-0.407-0.17c0.003,0.039,0.003,0.092-0.008,0.149c-0.014,0.11-0.063,0.287-0.07,0.311
		c-0.003,0.039-0.007,0.068-0.015,0.079c-0.024,0.099-0.053,0.198-0.078,0.297c-0.098,0.361-0.188,0.655-0.3,1.009
		c-0.003,0.004-0.011,0.015-0.014,0.025c-0.114,0.336-0.454,0.227-0.454,0.227c-0.003,0-0.039-0.015-0.039-0.015
		c-0.248-0.124-0.521-0.254-0.805-0.39c0,0-0.318-0.166-0.268-0.495c-0.004-0.007,0-0.015,0.003-0.025
		c0.003-0.014,0-0.024,0.008-0.035c0.01-0.028,0.017-0.063,0.027-0.088c0.088-0.32,0.277-1.002,0.301-1.162
		c0.033-0.188,0.156-0.532,0.233-0.666c-0.053-0.053-0.187-0.198-0.305-0.255c-0.099-0.049-0.204-0.07-0.35-0.061
		c-0.053,0.047-0.142,0.185-0.146,0.259c-0.003,0.042-0.117,0.396-0.241,0.786c-0.127,0.394-0.271,0.826-0.336,1.02
		c-0.07,0.212-0.223,0.258-0.347,0.258c-0.103,0-0.184-0.031-0.184-0.031c-0.248-0.1-0.584-0.22-0.852-0.319
		c-0.017-0.004-0.031-0.014-0.048-0.018c-0.318-0.12-0.298-0.393-0.276-0.502c0.138-0.411,0.314-0.931,0.449-1.338
		c0.027-0.096,0.064-0.192,0.092-0.291c0-0.004,0.003-0.007,0.007-0.014c0.012-0.042,0.132-0.347,0.316-0.439
		c-0.122-0.092-0.362-0.188-0.543-0.251c-0.215-0.071-0.602-0.139-0.623-0.142c0.064,0.138,0.078,0.379,0.046,0.5
		c-0.046,0.16-0.472,1.643-0.488,1.7c-0.021,0.056-0.096,0.234-0.213,0.276c-0.112,0.042-0.431-0.061-0.431-0.061
		c-0.022-0.003-0.036-0.007-0.054-0.011c-0.269-0.081-0.651-0.141-0.906-0.211c0,0-0.419-0.121-0.287-0.503
		c0,0,0.273-0.998,0.406-1.473c0-0.011,0.005-0.028,0.008-0.042c0.012-0.036,0.07-0.234,0.092-0.535
		c0.021-0.301-0.181-0.372-0.329-0.372c-0.142,0-0.298,0.255-0.332,0.404c-0.04,0.16-0.129,0.425-0.129,0.425l-0.01,0.025v0.003
		c-0.011,0.022-0.021,0.047-0.027,0.068c-0.146,0.386-0.26,0.705-0.391,1.091c-0.138,0.364-0.546,0.291-0.546,0.291
		c-0.304-0.064-0.598-0.124-0.871-0.174c-0.003,0-0.038-0.011-0.038-0.015c0,0-0.341-0.116-0.227-0.453c0-0.01,0-0.021,0.007-0.032
		c0.121-0.35,0.224-0.634,0.365-0.984c0.038-0.092,0.18-0.428,0.262-0.559c0.084-0.131,0.198-0.202,0.198-0.202
		c0.004-0.078-0.114-0.223-0.325-0.297c-0.025-0.008-0.054-0.014-0.087-0.021c-0.065-0.018-0.136-0.028-0.208-0.035
		c-0.205-0.025-0.531-0.046-0.599,0.209c-0.003,0.01-0.006,0.017-0.006,0.017c0.031,0.11,0.056,0.245,0.042,0.319
		c-0.018,0.082-0.047,0.156-0.061,0.191c-0.557,1.561-0.85,1.696-0.988,1.686c-0.117-0.007-0.615-1.183-0.187-2.295
		c0.003-0.007,0.006-0.014,0.006-0.021c0.22-0.497,0.429-0.857,0.623-1.183c0.345-0.566,0.564-1.335,0.564-1.335l0.006,0.015
		c0-0.004,0-0.011,0-0.011c0.287,0.195,0.532,0.433,0.759,0.691c0.007,0.007,0.011,0.01,0.011,0.014
		c0.102,0.17,0.261,0.3,0.354,0.481c0.024,0.054,0.043,0.103,0.043,0.142c0.077-0.297,0.066-0.659-0.046-0.949
		c-0.007-0.011-0.007-0.021-0.012-0.032c-0.421-1.151-1.512-1.827-2.524-2.401c-0.676-0.382-1.381-0.715-2.093-1.026
		c-2.085-0.917-2.117-1.526-2.398-2.49C97.95,72.926,97.922,72.784,97.901,72.629z M100.163,87.575
		c-0.042-0.152-0.082-0.286-0.117-0.392c-0.269-0.85-1.37-3.974-1.604-4.703c-0.209-0.641-0.38-1.19-0.322-2.157
		c0.006-0.138,0.017-0.282,0.035-0.439c0.135-1.179,0.719-3.604,0.793-3.905c0.003-0.018,0.007-0.028,0.007-0.028
		s0.963,0.464,1.26,0.641c0,0,0,0.011-0.004,0.032c-0.034,0.269-0.291,2.185-0.304,3.108c0,0.142,0.004,0.259,0.014,0.344
		c0,0,0.56,0.588,0.691,1.03c0.132,0.443-0.003,2.858,0.953,4.522v-0.039c0,0,0.046-0.178,0.248-0.479
		c0.206-0.304,0.602-0.729,0.839-0.562c0.236,0.17,0.205,0.644,0.202,1.154c-0.004,0.507-0.178,1.052-0.305,1.204
		c0,0,0.197,0.408,0.736,0.663c0,0-0.022-0.191,0.018-0.467c0.085-0.488,0.329-0.893,0.484-1.335
		c0.051-0.155,0.198-0.315,0.426-0.195c0.003,0,0.449,0.234,0.846,0.432c0.047,0.032,0.32,0.241,0.174,0.634
		c-0.006,0.018-0.011,0.025-0.015,0.036c-0.003,0.018-0.014,0.032-0.018,0.05c-0.147,0.371-0.275,0.712-0.463,1.104
		c0,0-0.096,0.361-0.267,0.375c0,0,0.33,0.219,0.482,0.284c0.227,0.095,0.51,0.219,0.651,0.25c0,0-0.152-0.233-0.113-0.566
		c0.092-0.477,0.23-1.137,0.351-1.686c0.042-0.127,0.159-0.347,0.425-0.265c0.297,0.124,0.604,0.241,0.906,0.354
		c0.259,0.106,0.256,0.358,0.245,0.443c-0.139,0.609-0.297,1.335-0.46,1.916c-0.04,0.088-0.094,0.215-0.139,0.259
		c0,0,0.276,0.195,0.46,0.241c0.181,0.049,0.527,0.121,0.527,0.121s-0.067-0.238,0.018-0.485c0.004-0.008,0.004-0.011,0.004-0.018
		c0.134-0.386,0.27-0.775,0.407-1.169c0.036-0.099,0.131-0.322,0.187-0.464c0.03-0.074,0.146-0.297,0.42-0.237
		c0.357,0.106,0.715,0.206,1.075,0.294c0.266,0.078,0.113,0.488,0.113,0.488s-0.385,0.949-0.637,1.562c0,0-0.086,0.215-0.223,0.328
		c0,0,0.247,0.11,0.432,0.148c0.396,0.078,0.631,0.072,0.726,0.078c0,0-0.121-0.293,0.021-0.644c0.01-0.014,0.015-0.032,0.018-0.049
		c0.12-0.277,0.244-0.557,0.361-0.833c0.032-0.078,0.063-0.159,0.097-0.237c0.038-0.12,0.229-0.319,0.544-0.262h0.025
		c0.251,0.049,0.503,0.088,0.754,0.127l0.003,0.003c0,0,0.447,0.092,0.284,0.513c-0.227,0.503-0.468,1.009-0.736,1.521
		c0.279,0.021,0.562,0.035,0.847,0.045c0,0-0.037-0.024,0.081-0.34c0.113-0.314,0.452-0.984,0.488-1.083
		c0.036-0.099,0.163-0.489,0.325-0.506c0.168-0.018,0.808,0.495,0.642,1.486c1.761-0.753,3.105-2.754,3.477-3.026
		c0.323-0.241,0.971-0.369,1.134-0.397c0.021-0.007,0.035-0.007,0.035-0.007c0.452-0.46,1.699-2.66,1.854-2.932
		c0.011-0.018,0.015-0.029,0.015-0.029c0.348,0.042,1.393,0.249,1.393,0.249s-1.089,2.532-1.731,3.622
		c-0.645,1.088-1.169,1.456-1.795,1.898c-0.625,0.442-3.39,2.266-4.119,2.783c-0.729,0.518-2.67,2.256-4.366,2.556
		c-0.839,0.15-1.569,0.167-2.259,0.089c-0.693-0.079-1.35-0.249-2.039-0.481c-0.004,0-0.009-0.004-0.015-0.004
		c-0.005-0.003-0.011-0.003-0.011-0.003c-1.385-0.466-2.507-1.03-3.669-2.281C100.962,90.75,100.454,88.655,100.163,87.575z
		 M80.539,84.123c-1.491-2.135-2.826-4.384-3.906-6.756c-1.059-2.316-1.919-4.713-2.457-7.207c-0.507-2.34-0.733-4.751-0.606-7.149
		c0.074-1.417,0.248-2.89,0.705-4.239l0.071-0.202c0.761,3.208,3.027,15.151,14.882,27.999c2.348,2.539,4.915,4.897,7.518,7.051
		c-0.785,0.126-1.543,0.29-2.27,0.488c-1.87-1.647-6.253-5.97-6.264-5.981c-3.53-3.551-6.161-6.965-8.145-10.137
		c-0.414-0.677-0.733-1.233-0.987-1.651c-0.138-0.237-0.266-0.471-0.394-0.704l-0.028-0.05c0.124,0.3,4.135,9.975,14.429,18.951
		c-0.747,0.263-1.448,0.546-2.093,0.855c-0.103,0.046-1.133-0.981-1.261-1.092c-1.03-0.914-2.036-1.854-3.006-2.828
		C84.462,89.205,82.369,86.753,80.539,84.123z M81.162,96.474c0.443,0.021,0.881,0.053,1.32,0.092
		c0.882,0.078,1.909,0.194,2.787,0.337c-0.528,0.173-1.25,0.516-1.739,1.288c-0.131,0.209-0.252,0.439-0.34,0.716
		c-0.138,0.432-0.245,0.79-0.323,1.079c-2.039-0.56-5.279-0.732-5.279-0.732c-0.092-0.138-0.188-0.318-0.195-0.524
		c-0.003-0.132,0.06-0.308,0.153-0.499c0.184-0.372,0.531-0.807,1.073-1.157c0.463-0.309,1.129-0.514,1.706-0.627
		C80.605,96.453,80.885,96.459,81.162,96.474z M87.079,97.164c-0.301,0.412-1.101,3.925-1.416,4.828c0,0-0.372,0.927-0.517,1.225
		c-0.329,0.655-1.728,2.39-5.364,1.231c-3.333-1.056-4.225-4.453-4.349-5.021c-1.137-0.729-1.104-2.104-1.104-2.104
		c-0.552,1.512,0.354,2.211,0.574,2.356c-0.035,0-0.213,0.184-0.234,0.209c-0.003,0.007-0.046,0.066-0.049,0.066
		c0,0-0.33-0.063-0.626-0.488c-0.128-0.178-0.248-0.408-0.337-0.737c-0.031-0.116-0.053-0.233-0.067-0.343
		c0,0.014,0,0.024-0.003,0.039c-0.078,0.513-0.56,0.867-1.069,0.791c-0.513-0.079-0.871-0.561-0.793-1.075
		c0.078-0.516,0.56-0.866,1.073-0.788c0.404,0.059,0.712,0.371,0.783,0.753c0.028-0.927,0.704-1.468,0.704-1.468
		c0.177,0.073,0.358,0.126,0.539,0.161c0.195,0.036,0.397,0.049,0.605,0.054c0.652,0.003,1.332-0.117,2.04-0.215
		c0.8-0.115,1.604-0.192,2.411-0.196c0.124-0.004,0.372,0.004,0.354,0.006c-0.652,0.036-1.679,0.274-2.334,0.666
		c-0.003,0-0.007,0.004-0.011,0.009c-0.375,0.219-0.772,0.583-0.978,0.969c-0.014,0.025-0.088,0.164-0.106,0.188
		c-0.074,0.159-0.124,0.308-0.12,0.425c0.007,0.205,0.117,0.4,0.216,0.531h-0.011c-0.074,0-0.903-0.003-0.903,0.053
		c0.45,2.78,2.624,4.425,4.338,4.756c1.678,0.325,2.599-0.14,3.211-1.269c0.39,0.177,0.864,0.209,1.371-0.209
		c-0.74,0.028-1.063-0.417-1.115-0.744c-0.149-0.85,0.382-2.137,0.588-3.115c0.208-0.98,0.952-1.579,1.558-1.845
		c0.606-0.266,1.218-0.794,1.491-1.618c0.276-0.818,0.089-1.354,0.057-1.534c-0.032-0.184,0.049-0.28,0.163-0.312
		c0.195-0.05,0.27,0.198,0.27,0.198C88.279,95.11,87.376,96.753,87.079,97.164z M116.03,108.785c0,0-0.011,0.13-0.064,0.292
		c-0.743,2.215-8.979,6.302-16.6,3.746c-7.614-2.557-11.646-11.013-10.98-13.002c0.045-0.131,0.089-0.196,0.089-0.196
		c0.01-0.007,0.014-0.028,0.021-0.038c0.052-0.096,0.117-0.184,0.188-0.269c1.671-2.114,9.285-5.595,16.303-3.24
		c5.811,1.95,9.578,7.198,10.711,10.563C115.988,107.515,116.105,108.261,116.03,108.785z M125.287,111.911
		c0.269,0.207,0.854,0.744,1.118,1.008c0.22,0.219,0.442,0.435,0.659,0.654c0.163,0.163,0.824,0.789,1.052,0.956
		c0.169,0.127,0.34,0.241,0.52,0.33c0.163,0.077,0.333,0.142,0.514,0.187c0,0,0,0-0.003,0.004c0.003,0,0.035,0.222,0.035,0.272
		c0.018,0.289-0.015,0.755-0.287,1.203c0.28-0.211,0.672-0.258,1.006-0.077c0.453,0.244,0.623,0.814,0.375,1.265
		c-0.243,0.453-0.811,0.619-1.264,0.374c-0.436-0.236-0.599-0.768-0.39-1.21c-0.07,0.075-0.142,0.149-0.229,0.22
		c-0.539,0.409-0.956,0.474-1.219,0.46c-0.185-0.011-0.291-0.063-0.291-0.063s0.012-0.116-0.041-0.312
		c-0.008-0.028-0.011-0.05-0.021-0.082c0.062,0.007,0.183,0.007,0.329-0.014c0.453-0.064,1.196-0.352,1.548-1.516
		c-0.019,0.024-0.101,0.127-0.233,0.259c-0.327,0.322-0.999,0.804-1.924,0.735c-0.442,0.379-3.193,2.565-6.487,1.399
		c-3.594-1.275-3.622-3.494-3.534-4.221c0.062-0.471,0.312-1.254,0.326-1.289c0.291-0.91,1.774-4.193,1.781-4.702
		c0.011-0.511,0.284-2.365,1.486-3.351c0,0,0.206-0.152,0.329,0.005c0.075,0.095,0.082,0.222-0.057,0.346
		c-0.133,0.128-0.602,0.439-0.88,1.257c-0.276,0.822-0.107,1.614,0.216,2.193c0.298,0.534,0.424,1.18,0.322,1.784
		c-0.036,0.213-0.1,0.428-0.191,0.626c-0.231,0.485-0.408,0.995-0.613,1.49c-0.227,0.542-0.478,1.046-0.8,1.35
		c-0.357,0.341-0.936,0.237-1.289-0.049c-0.014-0.015-0.032-0.021-0.046-0.032c0.153,0.638,0.552,0.896,0.967,0.984
		c-0.195,1.277,0.259,2.207,1.79,2.957c1.574,0.771,4.297,0.769,6.332-1.172c-0.201-0.23-0.445-0.4-0.683-0.588
		c-0.004-0.004-0.008-0.008-0.011-0.008c0.155-0.046,0.361-0.134,0.492-0.293c0.071-0.093,0.123-0.24,0.16-0.411
		c0.003,0,0.006,0.003,0.011,0.003c-0.005,0-0.008-0.006-0.008-0.006c0.021-0.097,0.038-0.198,0.046-0.316
		c0.024-0.414-0.063-0.892-0.22-1.274c-0.241-0.641-1.296-1.777-1.448-1.934C124.635,111.396,125.233,111.87,125.287,111.911z
		 M121.268,109.218c0.605,0.346,1.199,0.707,1.785,1.084c0.421,0.269,0.835,0.544,1.239,0.835c0.048,0.04,0.102,0.074,0.152,0.113
		c0.396,0.438,0.801,1.005,0.984,1.529c0.22,0.603,0.236,1.162,0.155,1.572c-0.039,0.205-0.096,0.383-0.177,0.489
		c-0.128,0.16-0.312,0.248-0.472,0.302c-1.129-0.773-2.844-1.789-4.652-2.604c0.11-0.28,0.24-0.628,0.393-1.055
		c0.097-0.277,0.167-0.743,0.167-0.743c0.075-0.907-0.302-1.654-0.613-2.108c0.057,0.032,0.113,0.061,0.174,0.096
		C120.693,108.892,120.98,109.051,121.268,109.218z M151.997,84.845c-0.815,2.344-2.319,4.525-3.97,6.355
		c-1.201,1.336-2.507,2.546-3.899,3.673c-2.139,1.725-4.571,3.126-7.05,4.294c-2.465,1.166-5.047,2.086-7.67,2.815
		c-4.104,1.138-8.445,1.736-12.734,1.978c-0.328-0.637-0.718-1.286-1.157-1.94c13.785-0.989,22.864-6.391,22.864-6.391l0.067-0.057
		c-0.484,0.211-0.98,0.421-1.502,0.627c-2.215,0.835-6.89,2.414-13.072,3.529c-2.499,0.453-5.028,0.759-7.557,0.969
		c-0.202,0.02-1.668,0.128-1.668,0.128c-0.46-0.591-0.966-1.171-1.52-1.742c3.354-0.148,6.795-0.481,10.175-1.086
		c13.934-2.509,22.492-8.333,26.592-11.573c0.375-0.297,0.709-0.566,1.009-0.814c0.706-0.57,1.141-0.931,1.156-0.96l-0.005,0.011
		L151.997,84.845z"/>
	<path fill="#B1BABF" d="M130.142,69.229c-0.549,1.378-1.64,2.737-2.118,3.513c-0.559-0.612-1.313-1.526-1.88-2.549
		c0.312-0.471,0.918-1.112,1.59-2.047c0.478-0.669,1.349-2.482,1.349-4.699c0-2.521-1.126-5.569-5.229-8.066
		c-0.015-0.011-0.028-0.021-0.046-0.028c-0.05-0.032-0.103-0.064-0.156-0.093c-0.528-0.319-1.052-0.598-1.544-0.835l0.411,0.173
		C133.072,59.675,130.746,67.696,130.142,69.229z"/>
	<path fill="#FFFFFF" d="M127.733,68.146c0.478-0.669,1.349-2.482,1.349-4.699c0-2.521-1.126-5.569-5.229-8.066
		c-0.015-0.011-0.028-0.021-0.046-0.028c-0.05-0.032-0.103-0.064-0.156-0.093c-0.528-0.319-1.052-0.598-1.544-0.835
		c-0.226-0.11-0.445-0.209-0.654-0.304c-0.213-0.092-0.415-0.177-0.606-0.255c-0.145-0.06-0.283-0.113-0.413-0.163
		c-0.101-0.039-0.194-0.074-0.288-0.11c-0.314-0.117-0.576-0.201-0.769-0.262c-0.038-0.014-0.074-0.025-0.113-0.04
		c-0.39-0.123-1.88-0.573-3.739-0.959c-10.081-1.717-12.025,5.846-12.06,7.684c-0.025,1.342,0.062,2.25,0.021,2.787
		c0.793-0.326,1.559-0.748,2.143-1.31c-0.135,0.156-2.337,2.663-4.692,2.928c0,0-0.517,2.27-1.147,3.417
		c-0.623,1.151-1.844,1.937-1.844,1.937c-0.118,1.622,0.757,3.969,1.73,4.458c0.971,0.488,3.566,1.345,4.574,2.496
		c1.007,1.151,1.035,2.372,0.801,3.241c-0.073,0.357-0.229,0.782-0.354,1.09c0.033,0.007,0.062,0.013,0.087,0.021
		c0.211,0.074,0.329,0.219,0.325,0.297c0,0-0.114,0.071-0.198,0.202c-0.082,0.131-0.224,0.467-0.262,0.559
		c-0.142,0.351-0.244,0.634-0.365,0.984c-0.007,0.011-0.007,0.022-0.007,0.032c-0.114,0.336,0.227,0.453,0.227,0.453
		c0,0.004,0.035,0.015,0.038,0.015c0.273,0.05,0.567,0.109,0.871,0.174c0,0,0.408,0.074,0.546-0.291
		c0.131-0.386,0.244-0.705,0.391-1.091c0.006-0.021,0.017-0.046,0.027-0.068v-0.003l0.01-0.025c0,0,0.089-0.265,0.129-0.425
		c0.034-0.149,0.19-0.404,0.332-0.404c0.148,0,0.351,0.071,0.329,0.372c-0.021,0.301-0.08,0.499-0.092,0.535
		c-0.003,0.014-0.008,0.032-0.008,0.042c-0.133,0.475-0.406,1.473-0.406,1.473c-0.132,0.383,0.287,0.503,0.287,0.503
		c0.255,0.071,0.638,0.131,0.906,0.211c0.018,0.004,0.031,0.008,0.054,0.011c0,0,0.318,0.103,0.431,0.061
		c0.117-0.042,0.192-0.22,0.213-0.276c0.017-0.057,0.442-1.54,0.488-1.7c0.032-0.121,0.019-0.361-0.046-0.5
		c0.021,0.003,0.408,0.071,0.623,0.142c0.181,0.063,0.421,0.159,0.543,0.251c-0.185,0.092-0.305,0.396-0.316,0.439
		c-0.004,0.007-0.007,0.01-0.007,0.014c-0.027,0.099-0.064,0.195-0.092,0.291c-0.135,0.407-0.312,0.927-0.449,1.338
		c-0.021,0.11-0.042,0.382,0.276,0.502c0.017,0.004,0.031,0.014,0.048,0.018c0.268,0.099,0.604,0.219,0.852,0.319
		c0,0,0.081,0.031,0.184,0.031c0.124,0,0.276-0.046,0.347-0.258c0.064-0.194,0.209-0.626,0.336-1.02
		c0.124-0.389,0.238-0.743,0.241-0.786c0.004-0.075,0.093-0.212,0.146-0.259c0.146-0.01,0.251,0.011,0.35,0.061
		c0.118,0.057,0.252,0.202,0.305,0.255c-0.077,0.134-0.2,0.478-0.233,0.666c-0.023,0.159-0.213,0.842-0.301,1.162
		c-0.011,0.024-0.018,0.06-0.027,0.088c-0.008,0.011-0.005,0.021-0.008,0.035c-0.003,0.011-0.007,0.018-0.003,0.025
		c-0.051,0.329,0.268,0.495,0.268,0.495c0.284,0.135,0.557,0.266,0.805,0.39c0,0,0.036,0.015,0.039,0.015
		c0,0,0.34,0.109,0.454-0.227c0.003-0.011,0.011-0.021,0.014-0.025c0.112-0.354,0.202-0.647,0.3-1.009
		c0.025-0.1,0.054-0.198,0.078-0.297c0.008-0.011,0.012-0.04,0.015-0.079c0.007-0.024,0.057-0.201,0.07-0.311
		c0.011-0.057,0.011-0.11,0.008-0.149c0,0,0.188,0.075,0.407,0.17c0.088-0.743,0.407-1.3,0.407-1.3
		c0.071-0.169,0.173-0.314,0.283-0.445c-0.003,0-0.006,0.003-0.006,0.003c0.406-0.701,1.146-1.395,2.375-1.649
		c1.498-0.309,4.082,0.57,5.156,0.768c0.944,0.174,2.705-0.854,3.71-2.04c0.185-0.283,0.312-0.488,0.312-0.488
		s-0.502-1.363-0.308-2.66c0.198-1.292,1.151-3.42,1.151-3.42c-1.771-1.679-1.977-5.17-1.977-5.17
		c0.11,0.708,0.397,1.416,0.769,2.082C126.455,69.721,127.062,69.081,127.733,68.146z M112.047,67.15
		c1.434,1.268,2.06,1.389,2.188,1.424c0.131,0.049,0.701,0.332,2.602,0.184c2.196-0.102,6.091-0.506,7.238,0.91
		c0,0.039-2.772-0.273-4.638,0.029c-1.856,0.392-4.49,0.644-5.659,0.237c-1.176-0.379-3.127-2.17-4.365-3.602
		c-1.301-1.356-3.68-2.773-3.68-2.818C107.497,63.075,110.36,65.745,112.047,67.15z M113.676,79.24l-0.188,0.56
		c-0.252,0.754-1.158,1.125-2.022,0.839c0-0.004,0-0.004,0-0.004s0.581-0.148,0.768-0.704c0.005-0.007,0.008-0.015,0.008-0.021
		c-0.166,0.021-0.343,0.021-0.521-0.036c-0.548-0.184-0.855-0.744-0.686-1.243c0.028-0.084-0.021-0.177-0.109-0.209
		c-0.088-0.028-0.182,0.019-0.209,0.099c-0.167,0.503-0.751,0.761-1.303,0.578c-0.179-0.06-0.319-0.167-0.439-0.29
		c-0.004,0.007-0.007,0.017-0.007,0.024c-0.188,0.559,0.187,1.027,0.187,1.027c-0.86-0.291-1.356-1.134-1.104-1.884l0.188-0.56
		c0.131-0.417,0.46-0.669,0.694-0.811c0.241-0.156,0.435-0.27,0.687-0.57l0.01-0.014v-0.004c0.33-0.364,0.585-0.641,0.738-1.101
		c0.244-0.715,1.084-1.094,1.925-0.857c0.033,0.007,0.064,0.015,0.093,0.024c0.036,0.015,0.067,0.025,0.103,0.04
		c0.8,0.322,1.243,1.126,1.003,1.844c-0.152,0.461-0.117,0.83-0.082,1.318l0.004,0.014v0.007c0.017,0.393,0.106,0.603,0.202,0.872
		C113.708,78.429,113.824,78.829,113.676,79.24z M125.545,73.117l0.005,0.01c0,0-0.443,2.989-1.177,4.161
		c-0.729,1.175-1.424,2.259-3.24,2.16c0,0,1.053-0.305,0.716-1.13c-0.024-0.06-0.042-0.12-0.057-0.184
		c-0.005-0.004-0.005-0.004-0.005-0.004c-0.006,0-0.278,0.085-0.423,0.103c-1.099,0.135-3.407-0.219-4.517-0.977
		c-0.011-0.003-0.017-0.007-0.024-0.01c0,0-0.276,0.329,0.078,1.359c-0.084-0.028-1.473-0.542-1.973-1.664
		c-0.517-1.155-0.014-4.256-1.869-4.904c-1.87-0.606-3.339,2.174-4.451,2.783c-1.108,0.608-2.581,0.138-2.581,0.138
		c0.914-0.609,0.889-1.037,0.889-1.037c-0.011,0-0.021-0.007-0.031-0.007c-1.343-0.067-3.4-1.176-4.193-1.944
		c-0.107-0.106-0.269-0.337-0.273-0.337c-0.023,0.021-0.049,0.039-0.077,0.057c-0.027,0.021-0.057,0.04-0.085,0.057
		c-0.737,0.433-0.159,1.261-0.114,1.325c-1.501-1.009-1.409-2.294-1.278-3.672c0.128-1.374,1.576-4.026,1.576-4.026l0.021,0.014
		c0-0.003-0.004-0.007-0.011-0.014c0.082,0.032,1.367,0.595,2.5,1.675c0.113,0.106,0.224,0.216,0.329,0.329
		c1.233,1.338,2.397,2.563,3.542,2.946c0.372,0.125,0.764,0.153,1.122,0.134c0.003,0,0.011,0,0.018-0.003
		c0.099-0.004,0.196-0.01,0.287-0.021V70.43c0.589-0.071,1.055-0.227,1.055-0.227c0.386,0.839,3.428,1.859,4.26,1.43
		c0,0,0.014,0.018,0.021,0.028c0.054,0.078,0.302,0.422,0.68,0.786v0.003c0.067,0.064,0.139,0.128,0.212,0.192
		c0.004,0.003,0.011,0.007,0.015,0.014c0.276,0.23,0.603,0.443,0.978,0.566c1.144,0.386,2.812,0.114,4.601-0.212
		c0.155-0.025,0.308-0.046,0.46-0.063C124.137,72.763,125.545,73.117,125.545,73.117z"/>
	<path fill="#FFFFFF" d="M145.611,124.569c-1.618,2.454-14.359,20.682-15.237,21.863c-0.071-0.057-2.259-1.93-2.337-1.998
		c3.247-4.51,12.429-18.215,12.613-18.496c1.63-0.396,3.24-0.827,4.822-1.323C145.521,124.601,145.566,124.587,145.611,124.569z"/>
	<path fill="#B1BABF" d="M151.667,122.363c-2.309,3.65-14.904,22.628-17.883,26.938c-0.021-0.018-0.054-0.039-0.07-0.054
		c-0.437-0.396-0.998-0.875-1.622-1.396c1.017-1.449,12.659-18.762,16.073-24.126C149.358,123.305,150.521,122.846,151.667,122.363z
		"/>
	<path fill="#B1BABF" d="M130.197,159.541c0.054,0.858-0.949,2.111-1.839,2.441c-0.644,0.265-1.498,0.396-2.322,0.393
		c-0.262,0-0.521-0.01-0.771-0.035c0.233-0.394,0.518-0.871,0.832-1.385c0.707-1.157,1.586-2.509,2.347-3.502
		c0.521,0.259,1.269,0.765,1.619,1.497C130.154,159.146,130.197,159.332,130.197,159.541z"/>
	<path fill="#B1BABF" d="M124.989,153.431c-0.649-0.597-1.06-1.233-1.317-1.864c-0.005,0.004-2.458,3.213-4.64,8.015
		c0.057,0.237,0.131,0.463,0.228,0.67c0.672,1.434,1.267,1.827,2.457,1.755c0,0,2.78-4.739,4.742-7.276
		C126.055,154.393,125.569,153.964,124.989,153.431z"/>
	<path fill="#FFFFFF" d="M123.672,151.566c-0.447-1.316-0.358-2.644-0.33-2.889c-0.034,0.054-0.07,0.105-0.104,0.16
		c-0.749,1.16-1.485,2.33-2.187,3.52c-0.673,1.141-1.993,3.689-2.044,3.788c-0.006,0.054-0.328,1.956,0.025,3.433
		c0.001-0.004,0.002-0.006,0.003-0.01c0.014-0.033,0.032-0.077-0.003,0.013C121.214,154.779,123.667,151.57,123.672,151.566z"/>
	<path fill="#B1BABF" d="M135.92,157.085c-0.587-2.582-3.869-5.1-4.627-5.651c-1.622-1.436-5.815-4.71-6.213-5.419
		c-0.427-0.772-2.367-3.402-5.024-3.934c0,0-0.442-0.063-0.507,0.279c-0.031,0.209,0.057,0.404,0.372,0.489
		c0.312,0.081,1.294,0.18,2.387,1.211c1.095,1.029,1.483,2.389,1.463,3.537c-0.028,1.147,0.38,2.766,1.771,3.81
		c1.398,1.045,3.048,2.809,4.498,3.213c0.088,0.024,0.172,0.04,0.26,0.046c0.96,0.085,1.87-0.779,1.726-1.264
		c0.316,1.048,0.028,1.81-0.443,2.354c1.608,1.583,2.387,3.389,1.885,5.015c-0.642,2.089-2.975,4.897-7.242,4.839
		c-3.038-0.038-4.823-0.883-5.602-1.37c0.003-0.006,0.262-0.587,0.278-0.626c-1.779,0.428-2.432-2.208-2.46-2.325
		c-0.995,4.57-2.922,4.646-3.431,4.578c-0.083-0.011-0.128-0.026-0.128-0.026s0.382,1.496,1.869,2.211
		c-0.677-0.202-1.427,0.043-1.838,0.666c-0.502,0.757-0.294,1.782,0.464,2.284c0.763,0.498,1.781,0.294,2.288-0.468
		c0.499-0.758,0.294-1.782-0.468-2.279c-0.039-0.027-0.074-0.04-0.113-0.062c0.201,0.074,0.407,0.142,0.648,0.181
		c1.982,0.329,2.634-0.627,2.634-0.627s-0.135-0.273-0.227-0.654c0,0-1.961,1.382-4.129-0.812c0.075,0.024,0.789,0.271,2.022,0.07
		c1.837-0.272,2.089-0.85,2.214-0.955c0.003-0.022,0.006-0.035,0.014-0.053c1.59,0.863,3.346,1.267,5.847,1.315
		c2.805,0.054,5.489-0.824,7.068-2.201C134.753,163.084,136.618,160.166,135.92,157.085z"/>
</g>
</svg>
