<?xml version="1.0" encoding="utf-8"?>
<!-- Generator: Adobe Illustrator 16.0.3, SVG Export Plug-In . SVG Version: 6.00 Build 0)  -->
<!DOCTYPE svg PUBLIC "-//W3C//DTD SVG 1.1//EN" "http://www.w3.org/Graphics/SVG/1.1/DTD/svg11.dtd">
<svg version="1.1" id="team_logos" xmlns="http://www.w3.org/2000/svg" xmlns:xlink="http://www.w3.org/1999/xlink" x="0px" y="0px"
	 width="200px" height="200px" viewBox="0 0 200 200" enable-background="new 0 0 200 200" xml:space="preserve">
<g id="redskins">
	<g>
		<g>
			<path fill="#FFFFFF" stroke="#FFFFFF" stroke-width="0.8725" d="M66.413,149.864c-0.618,0.206-1.894-0.138-1.894-0.138
				c0.425,3.36,0.892,4.514,0.892,4.514l-0.741,0.906l0.892,0.688c-0.961,6.654,1.866,11.236,3.169,15.693
				c-1.029,0.346-2.209,0.289-3.086-0.189c0.343,3.773,0.028,11.043-3.026,14.198c-0.582-0.378-1.001-0.478-1.227-0.821
				c-0.46,1.062-0.804,1.475-1.729,4.184c-0.516,1.816-0.961,4.354-1.201,7.103c-2.512-1.29-5.248-2.642-7.718-6.806
				c-0.548-0.98-0.934-1.776-2.277-3.09c-0.309,0.619-0.364,0.805-0.98,1.388c-0.653,0.616-2.353,1.37-2.367,1.305
				c-0.343-1.676-0.756-3.224-1.75-5.11c-0.951-2.094-4.217-4.871-6.895-11.662c-1.097-2.607-1.643-4.93-2.098-7.617
				c-0.206,0.105-0.343,0.172-0.481,0.209c-0.994,0.273-1.707,0.203-2.05-0.553c-0.844,2.274-1.887,3.535-2.779,4.151
				c-0.411,1.306-0.343,1.647-1.234,2.71c-0.825,1.235-1.097,1.543-1.667,3.877c-0.927,2.368-2.313,3.533-2.519,4.149
				c-0.343-0.752-0.479-0.616-0.822-1.167c-3.363,4.462-3.773,5.629-11.388,7.203c1.92-3.771,3.225-10.086,3.086-11.387
				c-0.959-8.852-1.853-10.703-2.337-17.562c-0.284-3.43-1.093-11.866-0.338-23.116c0.822-13.585,4.664-25.315,7.958-34.167
				C24.059,86.408,33.8,66.512,40.908,54.358l0.028-11.032h2.744l2.881-6.587l1.302,0.961l4.941-13.172l3.498,9.948l5.98-3.776
				C64.67,28.508,81.684,3.947,117.709,4c34.908-0.053,70.855,27.25,70.855,70.882c0,39.652-32.381,70.248-69.758,70.253
				c-28.96-0.005-47.62-14.754-57.514-28.27C61.926,123.659,60.608,137.172,66.413,149.864z"/>
		</g>
		<g>
			<g>
				<g>
					<g>
						<circle fill="#FFC20E" cx="117.797" cy="74.553" r="67.296"/>
					</g>
					<g>
						<circle fill="#FFFFFF" cx="117.797" cy="74.552" r="57.905"/>
					</g>
					<path d="M81.345,69.069c0,0-4.733,11.457-4.528,20.513c0,0,1.475-3.398,1.989-2.813c0,0-4.253,14.27-1.028,22.432
						c0,0,0.685-2.264,1.852-3.635c0,0,1.783-2.812,2.47-5.079c0,0,0.343,0.96,0.548,2.675c0,0,1.578-1.99,1.921-3.361
						c0.27-1.074,0.962-2.263,1.442-3.636l0.548,0.275c0,0,3.224-3.911,4.458-7.479c0,0,0.96-0.135,0.481,2.675
						c0,0,2.675-2.605,2.743-6.653l0.55,0.616c2.265,2.813,2.265,7.135,2.195,9.811c-0.548,8.575-4.938,13.171-10.427,18.178
						l0.48,0.411c8.164-1.507,13.542-2.389,21.814,0c3.149,0.911,10.771,4.393,14.478,6.727c0,0,8.231,3.565,13.994,3.565
						c0,0,0.272,0.138,0.272-0.17c0,0-0.615-2.128-0.066-10.122c0,0,0.615-3.703,1.096-6.241c0,0,0.618-1.715,0.688-5.213
						c0.006-0.282-0.274-2.401,1.166-2.197c3.127,0.447,4.871-0.273,7.271-0.686c0,0,2.539-0.754,3.568-0.823
						c0,0,2.412,0.386,3.154,0.138c0.822-0.275,1.715-0.961,2.812-1.99c0,0,1.234-1.302,0.412-4.253c0,0-0.825-2.676-0.344-3.499
						c0,0,0.72-1.818,1.783-2.882c0,0,0.754-1.235-0.274-1.853c0,0-0.55-0.617,0.377-0.857c0,0,0.687,0.069,1.131-0.172
						c0,0,0.241-0.103,0.276-0.617c0.035-0.55,0.272-3.223-1.51-5.555c0,0,0.514,0.135,0.893,0.273c0,0,2.195,0.207,3.328-0.344
						c0.992-0.548,2.433-1.233,2.229-4.525c-0.551-2.745-1.648-4.391-2.746-7.479c-1.303-3.292-1.507-4.938-4.253-7.204
						c-1.647-0.754-2.401-1.985-1.167-3.224c0.962-1.439,0.618-4.046-1.097-5.83c-1.646-1.648-2.882-4.184-3.499-5.489
						c-0.822-1.374-1.715-2.882-2.537-3.774c-0.824-1.029-2.061-1.646-4.255-4.253c0,0-1.302-1.167-1.511-2.4
						c-1.851-2.882-6.994-6.928-12.896-7.341c-1.715-0.207-1.715-0.207-2.95-0.344c-2.058-0.754-8.506-0.958-12.896,0.275
						c-1.423,0.305-4.255,0.823-4.255,0.823c-1.508,0.482-3.635,0.892-5.967,2.334c-1.715,0.892-4.254,3.018-6.174,4.391
						c-2.059,2.057-6.654,5.076-9.193,6.791c-4.939,3.636-9.191,8.437-11.662,11.457c0,0-6.244,7.82-9.33,21.336
						c-0.207,2.056-0.755,4.046-0.412,6.312c0,0,2.745-5.97,5.282-7.823c0,0-0.341,1.099-0.548,2.882c0,0,1.304-2.4,1.854-2.813
						c0,0,0.958-1.027,2.332-2.675c0,0,2.881-3.771,3.704-4.185c-1.062,1.99-1.302,3.292-1.406,5.352
						c0.447-0.411,0.72-0.72,0.857-0.961c0,0,0.275-0.548,0.549-0.41C81.551,68.793,81.345,69.069,81.345,69.069z"/>
					<path fill="#681D13" d="M164.113,75.071c0.722-1.509,0.584-2.985-0.445-4.767c-0.617-1.029-1.029-2.196-1.508-3.636
						c-0.208-0.585-0.619-1.784-1.1-2.813c-0.035-0.413-0.892-2.334-1.439-3.089c-1.373-1.987-2.506-2.159-3.26-2.982
						c0,0-0.272-0.02-0.286-0.012c-0.802,0.538-0.802,1.708-1.487,2.599c-0.072,0.099-0.3,0.219-0.449,0.146
						c-0.222-0.108-0.314-0.298-0.56-0.651c-0.231-0.334-0.407-0.093-0.647,0.182c-0.16,0-0.274,0.125-0.399,0.251
						c-0.22,0.221-0.042,0.339,0.125,0.589c0.172,0.258,0,0.258,0.104,0.396c-0.031,0.103-0.062,0.143-0.094,0.192
						c-0.085,0.14-0.309,0.103-0.473,0.076c-0.455-0.076-0.353-0.044-0.754-0.236c-0.5-0.238-0.739-0.89-1.125-1.096
						c-0.119-0.062-0.506-0.137-0.803,0.059c-0.224,0.15-0.32,0.474-0.127,0.646c0.319,0.29,0.569,0.639,0.916,0.899
						c0.467,0.352,0.973,0.604,1.036,1.099c0.083,0.624-0.841,0.847-1.274,0.523c-0.228-0.167-0.489-0.364-0.738-0.614
						c-0.039-0.042-0.074-0.246-0.121-0.282c-0.199-0.152-0.428-0.33-0.533-0.484c-0.193-0.292-0.455-0.604-0.807-0.739
						c-0.076-0.03-0.153-0.152-0.211-0.253c-0.16-0.282,0.016-0.614-0.104-0.875c-0.098-0.211-0.143-0.56-0.448-0.425
						c-0.276,0.275-0.242,0.275-0.559,0.248c-0.396-0.035-0.079-0.774-0.074-0.678c0.004,0.042-0.02-0.015,0.116-0.255
						c-0.274-0.088-0.692-0.312-0.374-0.72c0.271-0.344,0.536,0.163,0.635-0.042c0.036-0.079,0.271-0.511,0.361-0.565
						c0.304-0.182,0.396,0.062,0.441,0.128c-0.139,0.375,0.263,0.624,0.639,0.42c0.038-0.02,0.02-0.31,0.061-0.378
						c0.354-0.609,0.894-0.929,1.448-1.354c0.05-0.034,0.21-0.076,0.224-0.108c0.162-0.334,0.354-0.812,0.006-0.96
						c-0.293-0.125-0.896-0.015-0.773-0.531c0.059-0.246,0.381-0.336,0.555-0.42c0.653-0.305,1.324-0.606,2.008-0.875
						c0.16-0.062,0.439-0.31,0.646-0.327c0.85-0.071,0.657-0.049,1.703,0.135c0.182,0.035,0.537,0.229,0.716,0.29
						c0.556,0.197,1.353,0.13,1.718-0.469c0.359-0.587,0.26-1.58-0.104-2.275c-0.44-0.833-1.108-1.553-1.683-2.128
						c-0.742-0.739-1.696-1.118-1.887-2.13c-0.232-1.241-1.191-2.887-1.744-3.867c-0.57-1.015-1.072-1.69-1.801-2.631
						c-0.166-0.216-1.23-1.297-1.412-1.474c-1.212-1.179-1.725-1.567-3.018-2.034c-0.66-0.238-3.236-0.081-4.572-0.253
						c-0.418-0.054-1.714-0.086-2.061-0.771c-0.318-0.626-0.719-1.513-1.381-1.934c-0.24-0.152-0.613-0.31-0.869-0.439
						c-1.2-0.607-2.447-1.624-3.758-1.57c-0.476,0.02-0.011,0.533,0.109,0.597c0.585,0.31,0.857,0.653,1.18,1.032
						c0.336,0.396,1.071,0.408,1.701,0.668c0.6,0.248,1.096,0.631,1.654,0.924c0.527,0.278,1.232,1.194,0.65,1.567
						c-0.528,0.342-1.086-0.069-1.789,0.104c-0.139,0.034-0.344,0.13-1.168,0.13c-1.08,0.147-1.451-0.368-2.283-0.96
						c-0.83-0.592-1.352-1.509-2.159-2.076c-0.99-0.695-1.981-1.273-3.113-1.666c-0.245-0.089-0.573,0.049-0.791-0.069
						c-0.396-0.221-0.688-0.683-1.173-0.72c-0.839-0.063-0.839-0.133-1.675,0c-0.112,0.02-0.423,0.371-0.527,0.366
						c-0.487-0.02-1.057-0.152-1.301,0.12c-0.394,0.435,0.079,0.384,0.569,0.617c0.273,0.132,0.854,0.442,1.188,0.435
						c1.388-0.024,2.274-0.037,3.36,0.555c0.115,0.064,0.604,0.545,0.634,0.723c-1.035-0.02-2.665-0.425-3.856-0.327
						c2.008-0.163-2.043,0.054-2.932,0.02c-0.258-0.013-0.263,0.53,0.15,0.835c0.104,0.076,0.72-0.034,0.808,0.16
						c0.361-0.189,1.382-0.096,1.685,0.015c0.516,0.187,0.221,0.105,0.674,0.341c0.279,0.145,0.537,0.347,0.863,0.307
						c0.416-0.049,0.445-0.666,0.865-0.467c0.143,0.066,0.461,0.261,0.53,0.258c2.378-0.044,2.433,0.7,3.545,0.688
						c0.29-0.002,0.717-0.115,0.916,0.022c0.446,0.31,0.867,0.344,1.553,0.069c0,0,1.579,4.255,1.169,12.007
						c-0.414,3.292-0.619,3.909-1.371,6.584c0,0-1.1,4.253-0.688,7.204c0.411,9.948-2.606,18.179-5.9,23.667
						c-1.231,1.509-1.921,2.332-0.686,3.43c2.606,2.403,4.731,2.951,8.438,3.774c1.305,0.413,2.127,0.548,3.362,0.548
						c1.919,0,4.938,0.823,6.312,1.853c1.304,0.685,4.803,1.99,6.93,1.646c1.852,0.138,2.4,0.275,3.291,0.619
						c0.617,0.275,1.234,0.275,1.922,0.066c0.583-0.411,0.309-0.239,1.064-0.786c0.135-0.344,1.131-0.789,0.924-2.162
						c-0.068-1.027-0.479-2.093-0.687-3.054c-0.589-0.848-0.547-1.474-0.341-2.366c0.615-1.236,1.336-1.853,1.715-2.469
						c0.821-0.926,0.342-1.577-0.79-1.887c-0.549-0.241-1.61-0.137-2.71-0.241c-0.583,0-1.062-0.238-1.887-0.068
						c0,0-0.551,0.378-0.855,0.653l-0.414-0.241c0,0,0.379-1.098,1.168-1.749c0.789,0.138,1.934,0.226,2.537,0.069
						c0.715-0.322,1.529-0.455,2.129-0.686c1.028-0.103,1.508-0.034,2.742,0.035c0,0,0.618-2.676-1.544-4.7
						c-0.514-0.479-0.927-1.098-1.681-1.133c-2.606,0.31-4.047-0.754-4.459-1.029c-0.652-0.032-0.858,0.241-1.202,0.653
						c-0.892,1.509-1.953,2.022-1.953,2.022l-0.549-0.069c0,0,0.479-0.823,1.578-2.194c0.479-1.098,1.165-2.469,1.782-3.157
						c0.377-0.651,0.48-2.125,1.406-2.538c0.444,0,0.514-0.101,0.857,0.103c-0.686,0.654-2.605,2.985-0.617,4.425
						c0.823,0.688,2.059,0.688,2.366-0.034c0.151-0.396,0.481-0.651,0.651-0.789c1.028-0.207,1.887,0.31,2.229,0.582
						c0.824,0.963,1.305,1.408,1.716,1.614c0.446,0.342,1.271,0.272,1.681,0.272C163.152,76.307,163.873,75.55,164.113,75.071z"/>
					<path fill="#681D13" d="M149.779,58.976c0.406,0.214,0.58,0.145,1.423,0.268c0,0,0.733,0.118,1.401-0.467
						c0.104-0.091,0.67-0.376,0.653-0.604c-0.073-1.039,0.087,0.688-0.12-0.884c-0.046-0.332-0.033-0.637-0.162-0.993
						c-0.065-0.182-0.353-0.501-0.776-0.352c-0.082,0.027-0.759,0.58-0.775,0.607c-0.378,0.718-0.958,0.806-1.216,1.288
						c-0.227,0.425-0.363,0.528-0.484,0.801C149.669,58.757,149.617,58.89,149.779,58.976z"/>
					<path d="M156.089,69.314c1.185-0.386,1.749,0.165,3.054,1.052c0.229,0.152,0.408,0.555,0.086,0.771
						c-0.112,0.076-0.358,0.056-0.43-0.01c-1.145-1.094-1.511-1.099-2.757-1.319C155.982,69.796,155.788,69.415,156.089,69.314z"/>
					<path d="M149.089,81.383c-0.172,0.533-0.356,1.01-0.583,1.523c-0.232,0.533-0.125,1.189-0.484,1.671
						c-0.16,0.211-0.601,0.13-0.664-0.121c-0.24-0.938-0.121-1.926,0.326-2.781c0.233-0.447,0.834-0.668,1.338-0.499
						c-0.051,0.111,0.115,0.165,0.067,0.275C149.089,81.427,149.089,81.405,149.089,81.383z"/>
					<path d="M137.291,75.071c-0.395-0.128-0.6-0.494-0.549-0.892c0.131,0.042,0.023-0.15,0.136-0.143
						c0.821,0.057,1.59,0.381,2.403,0.398c0.936,0.022,1.873-0.155,2.729-0.558c1.055-0.501,1.971-1.042,2.987-1.72
						c0.455-0.302,1.108-0.481,1.674-0.609c0.888-0.199,0.827-0.698,1.491-1.088c0.96-0.568,0.893-0.98,1.438-0.767
						c0.154,0.059-0.158,0.403-0.326,0.555c-0.354,0.329-0.842,0.661-1.178,1.238c-0.066,0.118-0.576,0.661-0.681,0.74
						c-1.104,0.82-1.358,1.538-2.183,2.548c-0.465,0.57-0.619,1.319-0.932,1.987c-0.183,0.393-0.3,0.798-0.54,1.16
						c-0.103,0.152-0.475,0.081-0.604,0.207c-0.687,0.659-1.337,1.288-1.847,2.143c-0.08,0.14-0.375,0.13-0.41,0.061
						c-0.446-0.848-1.053-1.484-2.101-1.513c-0.188-0.005-0.383-0.422-0.373-0.798c0.003-0.079-0.086-0.231-0.184-0.251
						c-0.155-0.032-0.228-0.182-0.405-0.191c-0.173-0.007-0.314-0.285-0.352-0.398c-0.209-0.666-0.131-1.406-0.27-2.108
						C137.244,75.071,137.268,75.071,137.291,75.071z"/>
					<path fill="#FFFFFF" d="M122.086,94.112c-0.176-0.686-1.286-0.625-2.076-0.543c-1.208,0.127-2.306,0.334-3.471,0.951
						c0.771-1.162,1.713-1.236,3.512-1.924c0.41-0.155,0.312-0.877,0.049-1.297c-0.303-0.484-0.691-0.509-0.848-0.541
						c-1.479-0.285-1.96,0.057-2.738,0.258c-2.724,0.697-5.395,2.749-6.88,4.717c-0.432,0.573-0.292,1.177-0.2,1.303
						c0.273,0.375,0.707,1.41,0.821,1.285c1.104-1.194,2.442-2.292,3.882-1.949c-0.617,0.207-2.777,1.305-3.464,2.892
						c-0.043,0.098,0.272,0.676,0.687,0.985c0.549,0.923,0.754,1.302,1.062,1.474c0.198-0.018,0.6-0.42,0.71-0.592
						c1.521-2.015,3.029-3.251,7.216-3.799c1.2-0.207,1.885-0.55,1.986-1.646c0,0,0.241-0.55-0.238-1.646"/>
					<path fill="#FFFFFF" d="M117.088,100.488c0.066,1.03-0.082,1.495,0.211,2.163c0.277,0.64,0.86,1.191,1.081,1.846
						c0.17,0.499,0.765,1.138,0.765,1.48c0.275,0.275,0.312,0.52,0.314,0.52c0.361,0.477,1.439,1.054,1.062,1.336
						c-0.451,0.339-1.787,0.102-2.595-0.034c-1.03-0.17-0.435,0.771-0.209,0.865c1.05,0.435,3.257,0.582,3.979,0.979
						c0.436,0.24,1.007,0.609,1.195,1.039c0.139,0.321,0.387,0.601,0.598,0.879c0.697,0.935,0.941,1.342,1.66,1.931
						c0.361,0.294,0.779,0.795,0.648,1.248c-0.152,0.524-0.48,0.636-0.986,0.567c-0.162-0.022-0.658-0.174-1.142-0.38
						c-0.96-0.307-1.168-0.657-1.851-0.307c-0.379,0.194,0.168,0.825,0.591,1.052c1.726,0.918,3.798,0.936,5.468,1.908
						c1.438,0.833,2.311,1.843,2.229,3.98c-0.002,0.037,0.515,0.326,0.543,0.276c0.498-0.769,1.734,0.188,2.332-0.002
						c0.055-0.019,0.078-0.339-0.012-0.476c-0.285-0.432-0.9-0.451-1.16-0.868c-0.274-0.44,0.127-0.923-0.014-1.306
						c-0.143-0.394-0.809,0.289-1.056,0.027c-1.099-1.141-1.82-2.497-3.298-3.154c0.619-1.716,0.893-3.637,0.755-4.525
						c-0.411-0.346-0.583,0.203-0.687,0.271c-0.34,0.322-0.205,1.029-0.604,1.57c-0.064,0.088-0.594-0.021-0.749-0.152
						c-1.007-0.865-1.947-1.883-2.419-3.104c-0.02-0.047-0.223-0.3-0.264-0.359c-0.746-1.038-0.695-2.487,0.162-3.532
						c0.092-0.112,0.229-0.756,0.137-0.83c-0.143-0.115-0.49,0.131-0.631,0.271c-0.47,0.479-0.867,1.436-1.664,1.352
						c-0.895-0.093-1.236-1-1.789-1.592c-0.172-0.585-0.496-0.957-0.41-1.029c-0.756-1.099-0.824-1.989-1.518-3.36
						C117.607,100.729,117.391,100.579,117.088,100.488z"/>
					<g>
						<path fill="#681D13" d="M122.301,119.011c0.895,0.456-0.137-0.583-0.137-0.583c-0.344-0.24-1.148-1.488-1.312-1.781
							c-0.375-0.67-0.662-1.184-0.885-1.717c-0.341-0.822-1.008-1.404-2.117-2.477c-0.556-0.533-1.414-1.486-1.763-2.178
							c-0.544-1.075-0.854-2.994-2.153-3.903c-1.004-0.7-0.757-1.494-1.629-2.849c-0.334-0.519-1.009-0.574-1.51-1.082
							c-1.254-1.27-0.458-1.756-1.561-2.919c-0.482-0.509-0.688-0.612-1.108-1.383c-0.541-0.998-0.129-2.305-1.058-2.767
							c-0.821-0.408-1.455-0.553-2.021-0.739c-0.858-0.285-2.239-0.995-3.019-1.599c-0.816-0.636-2.492-2.035-4.288-3.59
							c1.097,8.437-0.412,15.641-8.782,23.189C104.465,109.748,111.255,113.384,122.301,119.011z"/>
					</g>
					<path fill="#681D13" d="M128.164,108.239c0.046,0.69,0.281,0.565,0.665,1.519c0.187,0.473,0.729,1.311,1.01,1.545
						c1.586,1.33,2.685,3.387,2.571,5.506c0.076,1.035,0.135,0.967,1.146,1.693c0.174,0.125,0.269,0.133,0.817,0.648
						c0.206,0.17,1.681,1.746,1.887,1.918c-0.034-0.615,0.062-1.662,0.052-1.992c-0.097-3.237,0.53-6.582-0.566-9.409
						c-0.823-2.12-2.676-4.504-3.4-6.718l-0.363-1.209c-0.383-1.724-0.42-3.515-0.42-3.515l-2.293-1.096
						c-1.804-0.728-3.848-1.388-5.666-2.062c0,0.96,0.139,1.646-0.584,2.609c0.48,1.165,0.894,3.737,1.441,4.354
						c1.201,1.132,2.161,2.022,2.948,4.733C127.584,107.416,128.132,107.76,128.164,108.239z"/>
					<path fill="#FFFFFF" d="M100.28,35.178c0,0-1.373-0.138-4.596,2.334c-3.57,2.194-8.303,5.351-11.732,9.535
						c-2.503,2.504-6.037,6.312-7.339,8.988c0,0-2.127,3.361-3.499,8.85c0,0,0.479,1.784,1.852-0.55
						c2.397-4.076,11.523-17.8,24.56-27.817l0.616-0.034c-6.453,5.553-14.818,13.034-22.947,25.761
						c-0.302,0.474-0.696,1.312-0.731,1.378c-0.366,0.678,0.567,0.784,0.095,0.67c0.74,0.179,1.015-0.85,1.49-1.054
						c0.294-0.125,0.413,0.754,0.884,0.526c1.659-0.801,2.894-2.516,3.579-3.545c0.034,0.292,0.412,1.167,0.412,1.167
						c0.753,0.207,3.087-3.02,4.322-5.213c0.343,0.411-0.085,1.416,0.371,0.985c1.411-1.332,2.666-2.759,3.418-4.061
						c0.875-1.521,1.836-2.207,2.18-4.885c0.549,0.344,0.535,0.494,0.686,0.619c0.342-0.413,0.367-0.843,0.914-1.459
						c0.595-0.668,0.714-1.189,1.436-1.666c0.258-0.169,0.829-1.241,0.943-1.801c0.107-0.533,1.29-2.256,1.373-2.828
						c0.961-1.781,2.607-2.742,3.774-4.115C103.436,36.001,102.611,34.286,100.28,35.178z"/>
					<path fill="#FFFFFF" d="M88.205,88.759c0.481,0.547,0.892-0.172,0.892-0.172c0.789-1.201,0.962-1.511,1.511-3.123
						c0.343-1.064,0.753-1.44,1.097-5.899c0.96,1.44,1.097,4.185,1.097,4.185l0.275-0.069c0,0,0.892-2.538,2.4-3.361
						c0,0,0.137-1.715,1.647-3.43c-0.206-1.029-0.343-1.853-0.549-3.499c-0.619-2.745-0.961-7.341-0.343-10.496
						c1.235,6.584,1.953,7.545,1.953,7.545l0.276,0.103c0.515-0.789,0.651-2.16,0.789-3.396c0.618-2.607,1.716-2.332,1.716-2.882
						c-0.344-2.125-0.892-5.486-0.549-8.368c0.685,3.154,1.028,2.951,1.509,4.115c0.618,1.439,0.686-0.342,0.686-0.342
						c-0.137-1.853,1.168-3.705-0.066-8.026c-0.48-2.951-1.854-9.263-1.304-10.702c0.343-1.784-0.274-1.167-0.274-1.167
						s-1.783,0.413-4.459,7.958c-3.911,12.555-7.272,25.933-10.908,36.77c1.098-5.692,6.928-25.792,8.643-33.065
						c0,0-0.239-0.513-0.616,0.069c-0.446,0.514-0.892,1.167-1.132,1.612c0.034-0.03-0.205,0.034-0.481,0.172l-0.856,1.302
						c0,0-1.715,2.403-6.415,7.272c-0.79,1.236-1.129,1.803-1.99,3.774c-0.309,0.72,0.172,0.823,0.686,0.41
						c1.27-1.233,1.337-1.233,3.088-2.572c0.078-0.059,1.487-0.568,1.487-0.59c-0.217,0.283-0.513,0.467-0.628,0.578
						c-0.482,0.459-1.67,1.796-1.996,2.363c-0.796,1.378-1.668,3.091-2.815,5.167c-1.434,2.602-2.533,5.619-2.533,5.619
						c-0.753,2.127-0.548,2.334-0.548,2.334c1.03,0.41,0.47,0.931,0.47,0.931c-0.47,0.853-0.675,1.538,0.114,1.229
						c0.515-0.103,0.79-0.368,1.001-0.631c0.405-0.501,0.749-0.842,1.027-1.189c0.461-0.572,0.376-0.747,0.867-1.317
						c0.638-0.74,1.049-1.356,1.7-1.664c-1.131,1.543-1.2,2.642-1.2,2.642l0.275,0.341l0.205,0.138c0,0-1.166,1.439-1.714,4.705
						c-0.26,1.551-0.206,1.745-0.446,2.602c0.114-0.11,0.789,0,1.395-0.614c-0.263,0.955-0.316,1.439-0.316,1.439
						c-0.119,0.786-0.119,0.648-0.119,1.541c0,0.825,0,0.481,0.275,1.44c1.235-0.548,1.509-0.479,2.671-1.848
						c0.552-0.519,0.972-1.771,1.136-1.684c0.31,0.135,0.049,0.836-0.086,1.145c-0.188,0.433-0.355,0.752-0.426,1.064
						c-0.037,0.157-0.193,0.391,0.059,0.607c0.108,0.091,0.032,0.081,0.384,0.071c0.206-0.007,0.398-0.325,0.398-0.325
						s0.117-0.027,0.219-0.265c0.088-0.201,0.24-0.309,0.378-0.413C87.76,88.894,87.965,88.689,88.205,88.759z"/>
					<polygon points="56.442,46.5 55.002,46.5 59.734,35.729 53.904,40.291 52.566,33.463 49.514,42.76 48.038,41.627 45.81,46.635 
						44.163,46.635 44.163,52.055 54.247,52.055 					"/>
					<polygon points="47.867,51.779 53.218,55.35 53.766,53.77 50.61,51.713 					"/>
					<path d="M49.376,51.025l2.883,2.951c0,0-2.264,9.535-1.854,14.749c4.185,4.049,7.273,7.958,6.792,16.739
						c0,0,0.274,0.206-1.51-0.344c0.892,0.96,1.167,1.717,1.92,3.363c0.343,2.676,0.549,5.076,0.343,7.545
						c0,0,0.206,6.105,0.413,8.027c0.822,0.274,0.342,2.469,0.411,5.352c0,0-0.069,1.783-0.342,3.154
						c-1.716-1.371-1.578-1.303-2.059-1.164c0.411,1.371,0.686,1.371,1.509,2.469c0,8.164,0.274,16.602,0.824,20.309
						c0.275,2.674,0.755,5.76,0.961,6.723c0.411,1.233,0.411,2.332,1.646,4.938c-0.412,0-1.561,0.032-2.333-0.961
						c1.097,2.058,1.097,1.646,1.783,2.332l0.961,7.135l-1.098,1.235l1.508,0.961c0,0-0.342,3.227,0.069,6.174
						c0.207,1.371,0.618,2.745,1.578,4.664c-1.989,0.068-2.333-1.578-2.333-1.578c-0.549-0.615-1.509-1.986-1.783-1.986
						c-0.138,1.986,0.96,2.741,1.439,3.908c1.398,3.354,1.578,6.588,0.344,12.827c-1.373-1.302-1.44-2.469-2.469-3.086
						c-0.138,3.567-0.275,4.666-0.959,6.243c-1.442,2.811-1.853,4.256-1.921,6.997c-2.402-1.989-3.019-4.734-4.666-6.312
						c-1.167-1.168-3.499-3.361-4.321-4.802c-0.138,1.713,0,2.332-0.687,3.978c-0.55-1.903-0.617-2.469-1.921-4.045
						c-1.716-2.4-5.556-7.754-6.448-13.447c-0.206-0.961-0.756-3.773-1.372-7.616c-0.481,1.308-1.305,2.334-2.128,2.538
						c-0.411,0.209-0.411-0.344-0.411-0.344c0.343-1.231,0.48-2.604,0.343-3.635c-0.205-1.509-0.616-4.869-1.373-5.695h-0.342
						c0.069,2.266-0.823,3.296-1.372,4.05c-0.069-1.784,0-3.157-0.412-4.05c-0.206-0.613-0.687-1.164-0.823-0.547
						c-0.342,1.783-0.479,2.127-0.479,3.772c-0.139,2.47-0.139,3.295-0.412,5.353c-0.137,1.508-0.617,3.36-1.99,5.213
						c-0.274-1.646-1.302-2.95-1.302-2.95c0,1.989,0.411,4.938-0.824,6.519c-1.51,2.057-1.716,3.086-2.195,4.598
						c-0.207-1.784-0.755-1.236-1.029-2.196c-1.098,4.665-4.527,8.231-5.763,9.056c0.824-1.921,1.508-4.117,1.646-5.486
						c0,0-0.206-5.078-0.96-7.959c-1.879-8.979-2.786-29.715-1.372-37.595c3.43-28.264,18.111-54.197,30.459-77.52L49.376,51.025z"
						/>
					<path fill="#FFFFFF" d="M47.182,52.124c-1.716,2.332-13.515,24.559-14.681,28.608c-10.429,20.923-16.603,41.78-16.191,62.29
						c0,8.987,0.961,15.162,2.059,21.746c0.48,2.541,1.167,5.969,1.029,8.162l0.343-0.203c0.481-0.893,1.783-3.705,2.195-6.037
						c0.136-0.893,0.617,0,0.617,0c0.205,0.619,0.618,0.893,0.687,1.512c0,0.548,0.275,0.479,0.411,0.068
						c0.755-1.508,0.962-2.402,0.686-3.979c-0.272-1.306-0.479-6.724,0.138-8.713c0-0.55,0.48,0,0.48,0
						c0.344,0.823,0.893,2.332,2.127,3.567c0,0,0.514,0.342,0.548,0c-0.138-1.439-0.274-10.84,1.92-11.869
						c0.824,0.205,0.892,0.757,1.51,1.373c0.687-0.754,0.96-3.979,0.754-6.448c0.068-3.845-0.48-7.687-0.823-10.084
						c-0.29-0.755,0-0.896,0.412-1.029c0.096-0.078,1.646-1.989,1.646-3.021c-1.303,0.893-1.646,1.1-2.881,1.923
						c-0.137-2.949-1.44-7.617-2.882-11.253c1.509,1.373,2.47,2.949,2.951,4.253c0.548-3.019,0.754-4.802,0.823-6.243
						c-0.755-2.676-2.195-8.506-2.058-12.825c0.892,3.152,1.715,6.585,2.607,8.642c0.411-1.509,0.753-4.185,1.302-6.446
						c0.756-0.548,1.646-1.097,1.921-1.577c-0.275-0.482-1.44,0.41-1.646,0.48c0.136-2.127,0.48-6.246-0.962-12.968l0.207-0.207
						c0.617,0.275,1.372,1.508,1.646,2.813c1.235-1.442,2.059-8.577,2.401-11.388c-1.304,0-1.922,1.44-2.812,1.302
						c0.137-0.892,0.206-0.479,0.548-1.302c0.342-0.96,1.166-1.921,1.508-3.226c0.756-1.096,0.756-2.4,0.824-3.636
						c0-1.165-0.137-2.879,0.824-4.388c0.205,0.617,0.067,1.027,0.548,2.332c0,0,1.921-4.184,2.95-5.145
						c1.372-5.968,4.666-12.692,7.752-17.083"/>
					<path fill="#FFFFFF" d="M47.798,55.897c-2.262,3.223-3.909,8.299-4.733,11.936c1.029-0.548,1.098-0.479,2.059-0.823
						C45.466,65.295,48.171,55.367,47.798,55.897z"/>
					<path fill="#FFC20E" d="M25.104,134.238c0.046,0.199,0.362,0.078,0.194,0.275c0.411,0,0.838,0.077,1.223-0.037
						c0.192-0.06,0.326-0.356,0.358-0.525c0.114-0.575,0.394-1.301-0.121-1.708c-0.456-0.361-0.376-0.948-0.694-1.229
						c-0.147-0.129-0.463-0.215-0.677-0.429c-0.162-0.165-0.448,0.199-0.446,0.363c0.007,0.446,0.301,0.903,0.297,1.389
						C25.229,133.074,24.886,133.28,25.104,134.238z"/>
					<path fill="#FFC20E" d="M20.152,127.93c-0.045-0.791-0.31-1.914,0.878-1.598c0.374,0.102,0.458,0.65,0.465,0.914
						c0.019,0.723,0.185,1.3,0.49,1.929c0.173,0.354-0.122,0.658-0.301,0.919c-0.462,0.676-1.402,1.062-1.944,0.389
						c-0.327-0.407-0.726-1.016-0.431-1.564c0.235-0.441,0.417-0.682,0.774-1.057"/>
					<path fill="#FFC20E" d="M21.341,136.104c-0.625-0.896-0.332-1.728,0.398-2.261c0.458-0.337,1.019-0.114,1.145,0.287
						c0.26,0.818,0.58,1.504,0.834,2.327c0.259,0.84-0.797,1.65-1.541,1.277C21.646,137.469,21.683,136.592,21.341,136.104z"/>
					<path fill="#FFC20E" d="M21.981,139.357c-0.298-0.096-0.328,0.162-0.476,0.291c-0.306,0.266-0.31,0.824-0.578,1.187
						c-0.5,0.679-0.352,1.634-0.154,2.28c0.134,0.443,0.795,1.088,1.36,1.041c0.884-0.078,1.546-1.731,0.868-2.131
						c-0.885-0.516-0.574-1.836-0.897-2.555c-0.025-0.052-0.237-0.015-0.375-0.015"/>
					<path fill="#FFC20E" d="M27.644,137.66c-0.231-0.305-0.237-0.712,0.021-0.903c0.24-0.18,0.656-0.094,0.902,0.118
						c0.069,0.061,0.321,0.223,0.391,0.277c0.74,0.584,1.19,1.373,0.793,2.268c-0.113,0.258-0.546,0.494-0.854,0.266
						c-0.24-0.18-0.569-0.188-0.735-0.496C27.896,138.695,28.005,138.139,27.644,137.66z"/>
					<path fill="#FFC20E" d="M19.535,132.115c-0.136-0.439-0.507-0.221-0.712,0.096c-0.486,0.752-0.729,1.482-0.799,2.578
						c0.138,0.615,1.023,0.734,1.454,0.464c0.983-0.619,0.278-2.979,0.231-2.655C19.74,132.389,19.535,132.068,19.535,132.115z"/>
					<path fill="#FFFFFF" d="M50.816,53.838c0,0-2.126,9.125-1.714,15.503c2.881,2.472,5.97,5.833,6.106,12.761
						c-0.24,0.104-0.274,0.035-0.48-0.138c-0.823-1.063-3.019-1.405-4.666-4.081c0.24,1.68,5.077,8.402,5.419,9.707
						c0.069,4.184,0.687,10.255,0.344,11.457c-1.166-0.584-1.783-1.921-1.646-1.098c0.892,2.3,1.646,4.322,2.709,6.002
						c0,0,0.104,5.934-0.104,5.111h-0.273c-0.96-0.688-1.92-1.511-2.642-2.195c-0.444-0.24-0.513-0.823-1.338-1.611
						c-1.234-1.133-1.921-2.094-2.434-2.298c-1.303-0.928-2.196-1.235-2.95-1.478c-0.241,0-0.721-0.067-0.721-0.067
						s2.47,2.094,4.047,4.459c1.887,2.263,2.676,3.603,3.327,4.974c0.72,1.37,1.75,2.743,2.572,3.911
						c0,1.888-0.138,8.164-0.034,9.228l-0.514-0.377c-1.235-0.754-2.573-2.437-3.705-4.633c-0.617,3.157,2.744,6.86,4.289,8.096
						c0.513,5.865,0.513,8.609,1.474,14.783l-0.067,0.481c-1.373-0.961-2.812-2.469-4.528-4.938
						c-0.137,2.397,2.264,5.558,4.802,8.574c0.336,0.397,0.25,0.932,0.428,1.383c0.302,0.768,0.601,1.703,0.979,2.22
						c0.309,1.337,0.445,3.12,0.378,3.877l-1.031,1.987l1.373,1.646c0.138,1.791-0.206,2.264,0,4.253c0,0-1.578-0.135-2.264-1.919
						c-1.234,3.428,0.138,7.271,1.235,9.262c0.824,2.334,1.303,3.772,1.167,6.309l-0.275,0.757
						c-0.823-1.646-1.989-3.021-3.156-3.911l-0.479-0.135c1.154,7.213,0.755,9.602-1.44,14.199l-0.343-0.344
						c-1.234-2.402-3.567-4.255-5.213-5.968c-0.276-0.067-3.156-3.705-3.362-6.657l-0.343,0.073
						c-0.136,1.026-0.548,3.222-0.274,3.634l-0.274-0.138c-1.647-0.755-4.631-6.585-5.146-9.948c0,0-0.102-0.65-0.343-1.988
						c-0.103-1.304-0.789-5.281-0.926-5.832c-0.241-1.475-0.868-3.336-1.132-4.321c0.035-0.341-0.206-0.444-0.377-0.169
						c-0.377,0.548-0.687,1.061-0.892,0.717c-0.172-0.341-0.034-0.889,0.103-1.645c-0.275,0.205-0.89,0.289-0.961-0.205
						c-0.754-3.363-1.166-7.549-1.166-10.979c0.344-0.893,1.304-2.538,2.058-4.32l-0.068-0.41c-0.824,0.41-2.196,1.781-2.469,2.535
						l-0.343-0.478c-0.275-1.374-0.548-4.052-0.548-6.862c-0.138-0.514,0.068-0.822,0.273-1.236
						c0.549-1.301,1.169-2.754,1.647-4.184c0.411-1.441,2.709-5.898,3.395-6.929l-0.446,0.41c-1.27,0.446-4.528,4.391-4.94,4.666
						l-0.308,0.034c0.171-3.943,1.27-12.725,2.023-18.11c0.754-2.022,6.655-8.198,5.283-7.1c-2.675,0.96-3.567,1.919-4.115,2.194
						l-0.824,0.275c0.821-3.828,2.526-17.672,4.323-21.404c1.302-2.263,2.605-2.882,3.566-5.351l-0.687,0.344
						c-0.479,0.479-2.606,2.057-3.909,3.84l-0.412,0.068c0.617-1.783,0.823-3.705,2.058-6.174c0.343-1.029,0.891-1.44,1.305-2.332
						c1.028-1.302,1.44-1.784,2.4-2.266c0.479-0.204,1.371-0.548,1.371-0.548c-2.74,11.236-3.704,20.37-4.528,32.861
						c-0.823,19.895,0.846,43.969,7.546,58.859c-5.35-17.424-7.408-36.359-6.722-55.566c0.548-16.464,3.019-29.636,8.37-51.863
						L50.816,53.838z"/>
					<path fill="#FFC20E" d="M38.616,138.904c-0.206-0.152-0.531,0-0.556,0.244c-0.07,0.709-0.084,2.039,0.988,1.826
						c0.378-0.074,0.63-0.465,0.541-0.865C39.462,139.543,39.038,139.225,38.616,138.904z"/>
					<path fill="#FFC20E" d="M41.176,141.412c-0.255-0.26-0.722-0.225-0.91-0.078c-0.394,0.307-0.54,0.943-0.399,1.43
						c0.152,0.525,0.332,1.092,0.723,1.502c0.251,0.26,0.773,0.562,0.911,0.373c0.323-0.451,0.624-1.065,0.479-1.715
						C41.848,142.346,41.585,141.83,41.176,141.412z"/>
					<path fill="#FFC20E" d="M50.989,140.584c-0.191,0.016-0.434,0.045-0.511,0.165c-0.383,0.601,0.033,1.298,0.544,1.556
						c0.539,0.271,1.209-0.635,0.812-1.133c-0.254-0.316-0.651-0.595-1.12-0.588"/>
					<path fill="#FFC20E" d="M46.278,146.896c-0.194-0.104-0.506-0.737-0.352-1.16c0.14-0.383,0.572-0.535,0.942-0.469
						c0.42,0.072,0.694,0.381,0.937,0.689c0.627,0.807,0.803,2.07-0.007,2.749c-0.334,0.276-0.929,0.214-1.167-0.185
						c-0.296-0.492-0.078-0.895-0.309-1.418C46.37,147.105,46.232,146.896,46.278,146.896z"/>
					<path fill="#FFC20E" d="M51.979,147.344c-0.558-0.441-0.325-1.316-0.943-1.718c-0.345-0.222-0.803-0.28-1.121-0.007
						c-0.335,0.287-0.333,0.712-0.417,1.145c-0.047,0.248,0.107,0.465,0.21,0.674c0.456,0.924,1.55,0.951,2.408,1.472
						c0.111,0.069,0.335-0.167,0.419-0.313C52.794,148.135,52.365,147.646,51.979,147.344z"/>
					<path fill="#FFC20E" d="M42.902,146.479c-0.293-0.352-0.786-0.232-1.087-0.031c-0.105,0.07-0.203,0.246-0.204,0.384
						c-0.006,0.89-0.302,1.812,0.022,2.658c0.196,0.511,0.651,1.128,1.24,0.864c0.417-0.188,0.68-0.692,0.539-1.185
						C43.151,148.268,43.536,147.242,42.902,146.479z"/>
					<g>
						<path fill="#FFC20E" d="M58.426,146.749c-0.179-0.624-1.304,0.007-1.709-0.394c-0.353-0.353-0.78-0.664-0.843-1.215
							c-0.289,0.646-0.06,1.327,0.243,1.899c0.176,0.332,0.569,0.509,0.832,0.796c0.291,0.318,0.396,0.752,0.559,1.15
							c0.212,0.519-0.296,0.814-0.621,0.877c-1.001,0.187-1.029-1.252-1.347-1.953c-0.224-0.497-0.864-0.693-1.202-1.155
							c-0.081-0.11-0.229-0.221-0.304-0.349c-0.284-0.504-0.863-0.867-1.111-1.403c-0.049,0.238,0.036,0.47,0.102,0.677
							c0.477,1.516,1.247,2.853,1.911,4.282c0.185,0.397,0.392,0.788,0.505,1.222c0.097,0.367,0.045,0.812-0.167,1.047
							c-0.217,0.234-0.721-0.28-0.819-0.108c-0.366,0.644,0.203,1.407,0.527,2.039c0.227,0.442,0.641,0.887,0.446,1.396
							c-0.039,0.102-0.175,0.236-0.312,0.273c-0.486,0.13-0.917-0.184-1.173-0.455c-1.009-1.062-1.893-2.12-2.697-3.398
							c-0.305-0.482-0.137-1.119-0.481-1.597c-0.197-0.276-0.569-0.72-0.909-0.417c-0.113,0.104-0.243,0.243-0.268,0.396
							c-0.109,0.629-0.235,1.211-0.615,1.678c-0.106,0.128-0.314,0.344-0.359,0.42c-0.522,0.958-0.632,2.057-0.804,3.175
							c-0.041,0.269-0.104,0.603-0.381,0.744c-0.292,0.147-0.485-0.157-0.642-0.354c-0.413-0.517-0.585-1.131-0.868-1.718
							c-0.178-0.36-0.184-0.815-0.414-1.196c-0.013-0.021-0.08-0.008-0.125-0.008c0.039,0.108-0.057,0.194-0.096,0.262
							c-0.275,0.475-0.724,0.695-1.216,0.885c-0.27,0.104-0.578-0.098-0.637-0.332c-0.33-1.334-1.251-2.28-1.62-3.559
							c-0.567,0.006-1.125,0.133-1.499-0.418c-0.821-1.213-0.653-2.568-0.764-3.902c-0.183,0.158-0.406,0.271-0.541,0.482
							c-1.301,2.1-1.799,4.277-2.357,6.646c-0.112,0.479-0.177,0.656-0.327,1.102c-0.308,0.926,0.172,1.062,0.651,0.446
							c0.843-1.084,0.67-0.188,0.756,0.067c0.207,1.578,1.029,3.158,1.372,5.83c0.274,2.607,0.823,5.217,1.098,6.52
							c0.726,4.285,3.566,8.646,5.282,9.727c-0.205-1.78,0.411-2.453,0.273-3.828l0.345-0.064c0.067,2.396,1.852,5.486,3.91,7.201
							c1.645,1.921,2.538,2.334,3.924,4.32c0.411,0.687,0.74,1,1.083,1.554c0.756-1.554,2.126-4.295,2.126-7.315c0,0,0,0.549,0,0
							c0-2.312-0.068-4.937-0.685-6.998c1.235,0.551,2.606,2.541,3.635,4.256c0.619-1.306,0.276-4.938-0.685-6.726
							c-0.961-2.192-2.539-5.211-1.441-9.673c0.686,1.58,1.167,1.511,2.264,1.784c0.205-1.646-0.068-3.98,0-4.253
							c-0.411-0.756-1.373-1.645-1.373-1.645l1.03-1.992c0.481-1.988-0.479-3.564-0.377-3.877
							C58.994,148.469,58.64,147.498,58.426,146.749z"/>
					</g>
					<path fill="#FFC20E" d="M46.561,135.727c-0.152-0.425-0.565-0.738-0.343-1.16c0.062-0.116,0.292-0.088,0.455-0.131
						c0.492-0.134,1.067-0.058,1.389,0.295c0.25,0.271,0.424,0.595,0.635,0.937c0.219,0.353,0.269,0.765,0.413,1.157
						c0.157,0.425-0.019,0.898-0.351,1.098c-0.385,0.233-0.548,0.436-1.119,0.186c-0.213-0.096-0.348-0.559-0.445-0.732
						c-0.134-0.238-0.122-0.909-0.297-1.13C46.741,136.049,46.652,135.99,46.561,135.727z"/>
					<path fill="#FFC20E" d="M46.19,138.044c-0.162-0.159-0.383-0.155-0.556-0.165c-0.084-0.004-0.325,0.018-0.315,0.168
						c0.054,0.832-0.909,1.223-1.2,1.879c-0.296,0.676,0.306,1.319,0.805,1.781c0.396,0.366,1.027,0.115,1.512-0.031
						c0.796-0.24,0.898-1.361,0.714-2.102C47.007,138.997,46.647,138.488,46.19,138.044z"/>
					<g>
						<polygon fill="#FFFFFF" points="54.247,42.072 54.59,43.687 56.374,40.222 						"/>
					</g>
					<polygon fill="#FFFFFF" points="47.73,46.534 48.689,44.166 51.435,46.534 					"/>
					<polygon fill="#FFFFFF" points="50.886,43.925 52.155,39.396 53.047,45.777 					"/>
					<g>
						<path fill="#FFC20E" d="M16.516,134.893c0.069,0.616,0.057,0.237,0.358,0.752c0.275,0.47,0.121,1.086,0.328,1.615
							c0.181-0.23,0.52-0.334,0.549-0.688c0.26,1.066-0.516,2.086-0.137,3.156c0.418-0.377,1.04-0.459,1.372-0.961
							c-0.032,0.426-0.146,0.832-0.207,1.246c-0.105,0.719,0.183,1.434,0.264,2.178c0.105,0.944,1.275,1.652,0.94,2.58
							c-0.541,1.5-0.831,3.103-0.341,4.524c0.103,0.295,0.252,0.796,0.598,0.955c0.266,0.126,0.658,0.128,0.919-0.002
							c0.136-0.065,0.257-0.295,0.289-0.506c0.101-0.664-0.193-1.278-0.076-1.909c0.151-0.823,0.296-1.648,0.816-2.309
							c0.107-0.133,0.508-0.088,0.6,0.121c0.345,0.768,0.208,1.697,0.66,2.402c0.154,0.241,0.701,0.413,0.988,0.146
							c0.639-0.598,0.404-1.531,0.486-2.303c0.137-1.287-0.468-1.979-0.636-3.293c-0.156-1.227,0.072-1.408,0.461-1.914
							c0.41,1.15,0.413,2.403,1.245,3.424c0.175,0.216,0.503,0.221,0.641,0.104c0.604-0.517,0.48-1.646,0.041-2.378
							c-0.667-1.111-1.208-2.875-0.006-3.893c-0.073,0.561-0.066,1.199,0.221,1.617c0.396,0.576,1.137,1.764,1.243,2.9
							c0.039,0.41,0.62,0.57,0.974,0.248c0.066-0.059-0.012-0.326,0.173-0.354c0.576-0.076,0.847,0.604,0.819,1.072
							c0.229,0,0.533,0.081,0.646-0.039c0.555-0.566,0.418-1.924,0.453-2.701c0.067-1.44,0.411-0.896,0.651-1.03
							c0,0,0.103,0.686-0.035,2.676c0.206,2.47-0.067,5.694-0.754,6.449c-0.618-0.619-0.686-1.167-1.51-1.373
							c-2.194,1.028-2.058,10.43-1.92,11.868c-0.035,0.343-0.548,0-0.548,0c-1.234-1.234-1.783-2.743-2.127-3.566
							c0,0-0.48-0.55-0.48,0c-0.617,1.99-0.41,7.41-0.138,8.712c0.276,1.578,0.069,2.47-0.686,3.979
							c-0.135,0.412-0.411,0.48-0.411-0.069c-0.069-0.616-0.481-0.892-0.687-1.509c0,0-0.481-0.893-0.617,0
							c-0.412,2.332-1.714,5.146-2.195,6.037l-0.343,0.205c0.138-2.195-0.548-5.625-1.029-8.164
							c-1.097-6.586-2.194-12.758-2.194-21.745c0-4.046,0.219-8.405,0.219-8.405L16.516,134.893z"/>
					</g>
					<g>
						<path d="M44.973,151.665c0.974,3.089,2.209,7.272,3.031,8.851c-0.206-1.783-2.606-8.851-2.537-9.33
							C45.536,150.707,44.973,151.665,44.973,151.665z"/>
					</g>
					<g>
						<path fill="#FFFFFF" d="M120.613,35.493c-0.211-0.226-0.947-0.111-1.081-0.42c-0.089-0.211-0.192-0.462-0.321-0.565
							c-0.229-0.182-0.549,0.066-0.861,0.116c-0.429,0.066-0.873-0.024-1.297-0.165c-0.74,0.848-2.705,0.287-3.63,0.351
							c-0.116,0.007,0.581,0.403,0.706,0.511c0.653,0.553,1.721,0.503,2.514,0.531c0.129,0.005,0.39-0.13,0.489-0.145
							c0.854-0.116,1.703,0.174,2.597,0.332C120.009,36.087,120.891,35.792,120.613,35.493z"/>
						<path fill="#FFFFFF" d="M133.943,36.687l-2.039-1.164c-0.117-0.202-0.274-0.442-0.471-0.625
							c-0.459-0.42-0.701-0.917-1.229-1.25c-0.701-0.444-1.278-1.024-2.044-1.307c-0.08-0.027-0.181,0.005-0.269-0.017
							c-0.056-0.012-0.09-0.062-0.069-0.128c-0.071,0-0.162,0.022-0.193-0.012c-0.108-0.118-0.271-0.187-0.371-0.218
							c-0.397-0.13-0.853,0.105-1.202-0.202c-0.203-0.182-0.437-0.285-0.658-0.425c-0.608-0.393-1.299-0.155-1.959-0.051
							c-0.127,0.02-0.317,0.191-0.459,0.312c-0.248,0.211-0.649-0.172-0.98-0.062c-0.282,0.093-0.602,0.428-0.326,0.703
							c0.291,0.295,0.688,0.497,1.084,0.597c1.186,0.3,2.422,0.007,3.537,0.499c0.316,0.14,0.711,0.305,0.842,0.712
							c-0.113,0.025-0.23,0.128-0.332,0.054c-0.271-0.194-0.572-0.191-0.838-0.214c-1.877-0.152-3.752-0.307-5.621-0.046
							c-0.002,0.477,0.191,0.982,0.625,1.039c0.579,0.079,1.209-0.103,1.768-0.059c0.611,0.044,1.261,0.44,1.871,0.787
							c0.089,0.049,0.229,0.044,0.328,0.002c0.272-0.115,0.514-0.511,0.813-0.368c0.185,0.088,0.383,0.172,0.581,0.204
							c0.428,0.076,0.734-0.003,1.146,0.059c0.862,0.128,1.599,0.708,2.461,0.58c0.641-0.094,0.937,0.123,1.254,0.413
							c-0.18-0.165,1.182,0.811,1.305,0.573C132.548,36.977,133.925,36.898,133.943,36.687z"/>
						<path fill="#FFFFFF" d="M138.91,36.269c-0.553-0.351-0.617-1.037-0.914-1.548c-0.229-0.391-0.528-0.705-0.885-0.889
							c-1.614-0.835-3.492-2.29-4.695-2.177c-0.375,0.034-0.529,0.438-0.314,0.651c0.414,0.403,1.146,0.538,1.209,1.191
							c1.607,0.804,4.426,1.339,4.295,3.093C137.593,36.761,138.635,36.232,138.91,36.269z"/>
					</g>
					<g>
						<path fill="#FFC20E" d="M45.877,48.206h10.112c-0.548,1.098-0.877,2.21-0.877,2.21h-9.235V48.206z"/>
					</g>
				</g>
			</g>
		</g>
	</g>
</g>
</svg>
